<?xml version="1.0"?>
<svg xmlns="http://www.w3.org/2000/svg" xmlns:xlink="http://www.w3.org/1999/xlink" xmlns:svgjs="http://svgjs.com/svgjs" version="1.1" width="512" height="512" x="0" y="0" viewBox="0 0 64 64" style="enable-background:new 0 0 512 512" xml:space="preserve"><g><path xmlns="http://www.w3.org/2000/svg" d="m20 64c-11.027 0-20-9.869-20-22a32.373 32.373 0 0 1 3.964-15.5l4.69-10.391a24.468 24.468 0 0 0 1.492-4.728 8.814 8.814 0 0 1 6.592-6.966l.526 1.93a6.774 6.774 0 0 0 -5.151 5.394 26.4 26.4 0 0 1 -1.621 5.161l-4.74 10.494a30.476 30.476 0 0 0 -3.752 14.606c0 11.028 8.075 20 18 20a16.646 16.646 0 0 0 9.434-2.964l1.13 1.65a18.633 18.633 0 0 1 -10.564 3.314z" fill="#ffffff" data-original="#000000" style=""/><path xmlns="http://www.w3.org/2000/svg" d="m28.9 15.337c-.273-.744-.49-1.422-.667-2.073l1.93-.524c.162.6.363 1.22.615 1.91z" fill="#ffffff" data-original="#000000" style=""/><path xmlns="http://www.w3.org/2000/svg" d="m27.782 11.249a6.836 6.836 0 0 0 -5.041-4.9l.526-1.93a8.786 8.786 0 0 1 6.452 6.334z" fill="#ffffff" data-original="#000000" style=""/><path xmlns="http://www.w3.org/2000/svg" d="m21 9h-2a3 3 0 0 1 -3-3v-3a3 3 0 0 1 3-3h2a3 3 0 0 1 3 3v3a3 3 0 0 1 -3 3zm-2-7a1 1 0 0 0 -1 1v3a1 1 0 0 0 1 1h2a1 1 0 0 0 1-1v-3a1 1 0 0 0 -1-1z" fill="#ffffff" data-original="#000000" style=""/><path xmlns="http://www.w3.org/2000/svg" d="m48.932 60.358a15.747 15.747 0 0 1 -8.442-2.513l1.072-1.687a13.024 13.024 0 0 0 13.9.361c5.795-3.573 7.762-11.4 4.575-18.2l-.475-1.019a26.918 26.918 0 0 0 -6.391-8.625l-8.842-8.054 1.347-1.479 8.842 8.058a28.865 28.865 0 0 1 6.856 9.254l.474 1.014c3.618 7.724 1.324 16.646-5.336 20.752a14.387 14.387 0 0 1 -7.58 2.138z" fill="#ffffff" data-original="#000000" style=""/><path xmlns="http://www.w3.org/2000/svg" d="m40.49 57.845-.174-.139.707-.707.538-.843-.529.834.698-.698-.698.698z" fill="#ffffff" data-original="#000000" style=""/><path xmlns="http://www.w3.org/2000/svg" d="m39 56.781a17.49 17.49 0 0 1 -2.221-2.118l1.5-1.321a15.467 15.467 0 0 0 1.966 1.875z" fill="#ffffff" data-original="#000000" style=""/><path xmlns="http://www.w3.org/2000/svg" d="m35.176 52.536a18.281 18.281 0 0 1 -1.176-2.131l-.476-1.014a28.785 28.785 0 0 1 -2.714-11.178l-.71-16.489a7.159 7.159 0 0 1 12.19-5.665l1.391 1.267-1.346 1.479-1.395-1.267a5.409 5.409 0 0 0 -5.894-1.083 5.353 5.353 0 0 0 -2.946 5.183l.712 16.489a26.8 26.8 0 0 0 2.528 10.415l.475 1.014a16.4 16.4 0 0 0 1.048 1.9z" fill="#ffffff" data-original="#000000" style=""/><path xmlns="http://www.w3.org/2000/svg" d="m49.54 54.105c-3.432 0-7.032-2.452-8.887-6.414a11.225 11.225 0 0 1 -.6-8.5 7.24 7.24 0 0 1 3.7-4.182c4.086-1.9 9.353.7 11.738 5.793a11.231 11.231 0 0 1 .6 8.505 7.234 7.234 0 0 1 -3.695 4.18 6.739 6.739 0 0 1 -2.856.618zm-2.911-17.728a4.815 4.815 0 0 0 -2.043.444 5.186 5.186 0 0 0 -2.658 3.051 9.22 9.22 0 0 0 .536 6.971c1.919 4.1 6 6.264 9.086 4.827a5.19 5.19 0 0 0 2.658-3.05 9.227 9.227 0 0 0 -.536-6.972c-1.517-3.239-4.382-5.271-7.043-5.271z" fill="#ffffff" data-original="#000000" style=""/><path xmlns="http://www.w3.org/2000/svg" d="m44.889 64a18.515 18.515 0 0 1 -5.444-.813 16.807 16.807 0 0 1 -10.461-8.955l-.5-1.058a26.5 26.5 0 0 1 -2.484-11.866l.242-17.662a8.766 8.766 0 0 1 5.16-7.711l2.79-1.295.842 1.815-2.79 1.3a6.752 6.752 0 0 0 -4 5.923l-.244 17.657a24.535 24.535 0 0 0 2.3 10.987l.5 1.058a14.82 14.82 0 0 0 9.237 7.892 17.228 17.228 0 0 0 13.819-1.764c7.3-4.335 10.137-12.728 6.751-19.956l1.811-.849c3.77 8.048.528 17.732-7.541 22.525a19.594 19.594 0 0 1 -9.988 2.772z" fill="#ffffff" data-original="#000000" style=""/></g></svg>
