    <svg xmlns="http://www.w3.org/2000/svg" id="icon-back" viewBox="0 0 30 30">
    	<g id="svgs" stroke="none" stroke-width="1">
    		<g id="BTN/Navigation/Icon-back" fill-rule="nonzero">
    			<g id="Right">
    				<g id="Layer_1">
    					<polygon id="Shape"
    						points="18.7689063 22.9375 11.1315625 15.3001563 18.7689063 7.6628125 18.0371875 7 10 14.96875 10 15.6315625 18.0371875 23.6003125" />
    					<path
    						d="M14.9990626,30 L15.0000001,30 C19.0068751,30 22.7732814,28.4390625 25.6064064,25.6064063 C28.4395314,22.77375 29.9995314,19.0064062 29.9990626,14.9995312 C29.9990626,10.9926562 28.4390626,7.22578125 25.6059376,4.393125 C22.7732814,1.56046875 19.0068751,0 15.0000001,0 L14.9990626,0 C10.9921876,0 7.22578136,1.56046875 4.39265636,4.39359375 C1.56000011,7.22671875 -0.000468644425,10.9935938 1.05575301e-07,15.0004687 C1.05575301e-07,19.0073438 1.56000011,22.7742187 4.39312511,25.606875 C7.22578136,28.4395312 10.9921876,30 14.9990626,30 Z M5.05593761,5.05640625 C7.71140636,2.40046875 11.2429689,0.9375 15.0000001,0.9375 L15.0009376,0.9375 C18.7565626,0.9375 22.2876564,2.40046875 24.9435939,5.0559375 C27.5995314,7.711875 29.0620314,11.2434375 29.0615626,14.9995313 C29.0615626,18.7560938 27.5990626,22.2876563 24.9435939,24.9435938 C22.2881251,27.5995312 18.7565626,29.0625 15.0000001,29.0625 L14.9981251,29.0625 C11.2425001,29.0625 7.71140636,27.5995312 5.05546886,24.9440625 C2.40000011,22.288125 0.937031356,18.7570313 0.937500106,15.0004687 C0.937031356,11.2439063 2.40000011,7.71234375 5.05593761,5.05640625 Z"
    						id="Shape" />
    				</g>
    			</g>
    		</g>
    	</g>
    </svg>
