<?xml version="1.0"?>
<svg xmlns="http://www.w3.org/2000/svg" xmlns:xlink="http://www.w3.org/1999/xlink" xmlns:svgjs="http://svgjs.com/svgjs" version="1.1" width="512" height="512" x="0" y="0" viewBox="0 0 512 512" style="enable-background:new 0 0 512 512" xml:space="preserve"><g><g xmlns="http://www.w3.org/2000/svg"><path d="m511.949 230.744c-.768-22.508-10.132-43.673-26.365-59.599-16.23-15.921-37.572-24.882-60.092-25.232-3.145-.052-6.316.07-9.428.353-3.419.309-6.729-.748-9.326-2.977-2.626-2.256-4.19-5.416-4.403-8.891l-.057-.865c-.51-7.225-1.922-14.367-4.196-21.23-1.313-3.963-5.589-6.114-9.554-4.799-3.964 1.313-6.112 5.59-4.798 9.554 1.878 5.668 3.044 11.569 3.466 17.544l.047.71c.464 7.598 3.889 14.505 9.644 19.448 5.726 4.917 13.022 7.249 20.547 6.565 2.581-.235 5.213-.333 7.824-.293 38.816.603 70.258 31.451 71.581 70.228.698 20.442-7.278 40.35-21.883 54.618-14.815 14.474-34.411 21.789-55.179 20.593-36.31-2.087-65.662-31.02-68.274-67.3-.038-.533-.071-1.066-.098-1.599-.37-7.307-3.776-14.239-9.344-19.017-5.597-4.803-12.691-7.039-19.982-6.293-2.414.247-4.874.375-7.295.38h-.221c-.004 0-.008 0-.012 0-14.496 0-26.419 11.145-27.145 25.376-.029.559-.064 1.118-.105 1.68-2.709 36.642-33.589 66.226-70.301 67.352-17.599.545-34.786-5.296-48.367-16.431-9.986-8.187-24.429-8.169-34.34.047-13.841 11.474-31.415 17.388-49.44 16.654-38.475-1.569-69.1-32.986-69.722-71.524-.179-11.065 2.062-21.719 6.659-31.667 1.752-3.79.099-8.283-3.692-10.034-3.791-1.752-8.283-.099-10.034 3.692-5.558 12.028-8.267 24.898-8.051 38.254.362 22.399 9.253 43.653 25.037 59.848 16.451 16.88 39.23 26.613 62.808 26.613 10.372 0 20.562-1.825 30.146-5.318l20.24 25.844c19.384 24.752 33.789 53.967 41.656 84.489 2.318 4.563 5.387 6.375 9.208 5.434 4.043-1.042 6.476-5.165 5.434-9.208-8.384-32.523-23.735-63.657-44.394-90.037l-18.098-23.109c4.159-2.419 8.142-5.179 11.893-8.289.168-.139.342-.262.515-.391l17.594 22.466c12.284 15.685 22.785 32.861 31.212 51.052 2.335 3.512 5.164 4.913 8.487 4.205 3.465-.763 5.933-3.835 5.933-7.383v-50.361c5.049.441 10.089.414 15.121-.08v84.394c0 7.235 2.826 14.03 7.956 19.132 5.094 5.066 11.843 7.849 19.023 7.849h.156c13.875-.078 25.373-10.759 26.745-24.845l1.62-16.615c2.976-30.537 9.804-60.641 20.294-89.475l27.269-74.957c2.315.223 4.51 1.158 6.344 2.731 4.223 3.625 3.97 7.609 4.379 12.024l-23.782 65.372c-9.779 26.879-16.243 54.961-19.212 83.464-.397 3.814 2.123 7.321 5.864 8.16 3.548.767 6.478-.857 8.789-4.872 11.605-33.054 31.605-62.681 57.84-85.679l5.116-4.485c4.196 3.168 8.685 5.964 13.414 8.349l-8.562 7.506c-32.712 28.677-54.609 68.112-61.657 111.04l-8.446 51.449c-.39 2.377-2.422 4.103-4.831 4.103h-91.583c-2.438 0-4.474-1.75-4.84-4.161l-3.948-26.029c-.626-4.129-4.482-6.971-8.608-6.341-4.129.626-6.967 4.48-6.341 8.608l3.948 26.03c1.496 9.858 9.819 17.013 19.789 17.013h91.583c9.849 0 18.155-7.054 19.751-16.773l8.446-51.449c6.481-39.479 26.619-75.746 56.703-102.119l14.523-12.731c5.9 1.64 12.038 2.697 18.359 3.06 24.702 1.425 48.981-7.645 66.614-24.874 17.639-17.234 27.272-41.271 26.429-65.951zm-319.386 111.256c-5.669-9.355-11.885-18.358-18.607-26.94l-4.037-5.155c7.082 4.199 14.703 7.368 22.644 9.436zm109.943-103.209c.22-4.326 2.879-7.989 6.659-9.803l-8.35 22.952c.751-3.654 1.286-7.366 1.564-11.124.05-.676.092-1.351.127-2.025zm-39.25 151.474-1.62 16.615c-.608 6.242-5.783 11.157-11.781 11.191-3.177.009-6.176-1.207-8.432-3.45-2.255-2.242-3.498-5.23-3.498-8.41v-87.146c13.939-3.841 26.845-11.119 37.531-21.357 2.669-2.558 5.145-5.272 7.451-8.104v11.665c-10.082 28.751-16.695 58.667-19.651 88.996zm92.867-93.136c-14.51 12.72-27.243 27.323-37.885 43.346 2.519-9.416 5.449-18.722 8.78-27.879l16.159-44.418c4.057 9.526 9.743 18.195 16.714 25.647z" fill="#ffffff" data-original="#000000" style=""/><path d="m34.29 182.34c1.797 0 3.601-.637 5.045-1.931 7.157-6.418 10.469-16.299 8.645-25.787-.856-4.452-1.296-9.02-1.307-13.576-.045-19.442 7.483-37.738 21.198-51.518s31.976-21.394 51.418-21.439c3.093-.018 6.223.186 9.293.574 10.126 1.28 20.029-3.165 25.848-11.604 13.572-19.681 35.925-31.464 59.795-31.52h.17c23.796 0 46.123 11.67 59.753 31.242 6.157 8.841 16.973 13.326 27.549 11.43 5.926-1.062 12.02-1.386 18.109-.96 18.195 1.269 35.173 9.369 47.805 22.808 2.86 3.042 7.644 3.191 10.687.331 3.042-2.86 3.19-7.644.331-10.687-15.249-16.222-35.765-26.001-57.77-27.536-7.333-.51-14.677-.121-21.829 1.161-4.782.86-9.681-1.179-12.473-5.189-16.457-23.632-43.418-37.721-72.161-37.721-.067 0-.139 0-.206 0-28.828.067-55.821 14.294-72.207 38.056-2.559 3.711-7.073 5.749-11.502 5.186-3.708-.469-7.483-.695-11.226-.693-23.481.055-45.535 9.251-62.099 25.893-16.565 16.642-25.657 38.739-25.602 62.22.013 5.5.544 11.016 1.579 16.395.828 4.306-.662 8.78-3.89 11.674-3.109 2.788-3.369 7.568-.582 10.676 1.491 1.668 3.555 2.516 5.629 2.515z" fill="#ffffff" data-original="#000000" style=""/><ellipse cx="142.957" cy="138.282" rx="9.942" ry="9.942" transform="matrix(.383 -.924 .924 .383 -39.507 217.439)" fill="#ffffff" data-original="#000000" style=""/><circle cx="171.974" cy="112.199" r="9.942" fill="#ffffff" data-original="#000000" style=""/><ellipse cx="181.917" cy="181.844" rx="9.942" ry="9.942" transform="matrix(.987 -.16 .16 .987 -26.779 31.488)" fill="#ffffff" data-original="#000000" style=""/><circle cx="208.152" cy="181.844" r="9.942" fill="#ffffff" data-original="#000000" style=""/><ellipse cx="251.593" cy="144.755" rx="9.942" ry="9.942" transform="matrix(.707 -.707 .707 .707 -28.667 220.301)" fill="#ffffff" data-original="#000000" style=""/><ellipse cx="438.321" cy="203.846" rx="9.942" ry="9.942" transform="matrix(.987 -.16 .16 .987 -26.993 72.843)" fill="#ffffff" data-original="#000000" style=""/><ellipse cx="61.861" cy="203.846" rx="9.942" ry="9.942" transform="matrix(.973 -.23 .23 .973 -45.18 19.666)" fill="#ffffff" data-original="#000000" style=""/><circle cx="103.167" cy="268.802" r="9.942" fill="#ffffff" data-original="#000000" style=""/></g></g></svg>
