<?xml version="1.0"?>
<svg xmlns="http://www.w3.org/2000/svg" xmlns:xlink="http://www.w3.org/1999/xlink" xmlns:svgjs="http://svgjs.com/svgjs" version="1.1" width="512" height="512" x="0" y="0" viewBox="0 0 512 512" style="enable-background:new 0 0 512 512" xml:space="preserve" class=""><g><linearGradient xmlns="http://www.w3.org/2000/svg" id="a" gradientUnits="userSpaceOnUse" x1="-146.263" x2="419.831" y1="402.263" y2="-163.831" data-name="New Gradient Swatch 1"><stop stop-opacity="1" stop-color="#35a233" offset="0"/><stop stop-opacity="1" stop-color="#83bb26" offset="0.5366795366795367"/><stop stop-opacity="1" stop-color="#35a233" offset="1"/></linearGradient><linearGradient xmlns="http://www.w3.org/2000/svg" xmlns:xlink="http://www.w3.org/1999/xlink" id="b" x1="-102.263" x2="463.831" xlink:href="#a" y1="446.263" y2="-119.831"/><linearGradient xmlns="http://www.w3.org/2000/svg" xmlns:xlink="http://www.w3.org/1999/xlink" id="c" x1="-100.263" x2="465.831" xlink:href="#a" y1="448.263" y2="-117.831"/><linearGradient xmlns="http://www.w3.org/2000/svg" xmlns:xlink="http://www.w3.org/1999/xlink" id="d" x1="-64.263" x2="501.831" xlink:href="#a" y1="484.263" y2="-81.831"/><linearGradient xmlns="http://www.w3.org/2000/svg" xmlns:xlink="http://www.w3.org/1999/xlink" id="e" x1="-88.263" x2="477.831" xlink:href="#a" y1="460.263" y2="-105.831"/><linearGradient xmlns="http://www.w3.org/2000/svg" xmlns:xlink="http://www.w3.org/1999/xlink" id="f" x1="-52.263" x2="513.831" xlink:href="#a" y1="496.263" y2="-69.831"/><linearGradient xmlns="http://www.w3.org/2000/svg" xmlns:xlink="http://www.w3.org/1999/xlink" id="g" x1="-76.263" x2="489.831" xlink:href="#a" y1="472.263" y2="-93.831"/><linearGradient xmlns="http://www.w3.org/2000/svg" xmlns:xlink="http://www.w3.org/1999/xlink" id="h" x1="-40.263" x2="525.831" xlink:href="#a" y1="508.263" y2="-57.831"/><linearGradient xmlns="http://www.w3.org/2000/svg" xmlns:xlink="http://www.w3.org/1999/xlink" id="i" x1="-56.263" x2="509.831" xlink:href="#a" y1="492.263" y2="-73.831"/><linearGradient xmlns="http://www.w3.org/2000/svg" xmlns:xlink="http://www.w3.org/1999/xlink" id="j" x1="-20.263" x2="545.831" xlink:href="#a" y1="528.263" y2="-37.831"/><linearGradient xmlns="http://www.w3.org/2000/svg" xmlns:xlink="http://www.w3.org/1999/xlink" id="k" x1="-44.263" x2="521.831" xlink:href="#a" y1="504.263" y2="-61.831"/><linearGradient xmlns="http://www.w3.org/2000/svg" xmlns:xlink="http://www.w3.org/1999/xlink" id="l" x1="-8.263" x2="557.831" xlink:href="#a" y1="540.263" y2="-25.831"/><linearGradient xmlns="http://www.w3.org/2000/svg" xmlns:xlink="http://www.w3.org/1999/xlink" id="m" x1="-32.263" x2="533.831" xlink:href="#a" y1="516.263" y2="-49.831"/><linearGradient xmlns="http://www.w3.org/2000/svg" xmlns:xlink="http://www.w3.org/1999/xlink" id="n" x1="3.737" x2="569.831" xlink:href="#a" y1="552.263" y2="-13.831"/><linearGradient xmlns="http://www.w3.org/2000/svg" xmlns:xlink="http://www.w3.org/1999/xlink" id="o" x1="-58.263" x2="507.831" xlink:href="#a" y1="490.263" y2="-75.831"/><linearGradient xmlns="http://www.w3.org/2000/svg" xmlns:xlink="http://www.w3.org/1999/xlink" id="p" x1="-12.263" x2="553.831" xlink:href="#a" y1="536.263" y2="-29.831"/><linearGradient xmlns="http://www.w3.org/2000/svg" xmlns:xlink="http://www.w3.org/1999/xlink" id="q" x1="23.737" x2="589.831" xlink:href="#a" y1="572.263" y2="6.169"/><linearGradient xmlns="http://www.w3.org/2000/svg" xmlns:xlink="http://www.w3.org/1999/xlink" id="r" x1="-.263" x2="565.831" xlink:href="#a" y1="548.263" y2="-17.831"/><linearGradient xmlns="http://www.w3.org/2000/svg" xmlns:xlink="http://www.w3.org/1999/xlink" id="s" x1="35.737" x2="601.831" xlink:href="#a" y1="584.263" y2="18.169"/><linearGradient xmlns="http://www.w3.org/2000/svg" xmlns:xlink="http://www.w3.org/1999/xlink" id="t" x1="11.737" x2="577.831" xlink:href="#a" y1="560.263" y2="-5.831"/><linearGradient xmlns="http://www.w3.org/2000/svg" xmlns:xlink="http://www.w3.org/1999/xlink" id="u" x1="47.737" x2="613.831" xlink:href="#a" y1="596.263" y2="30.169"/><linearGradient xmlns="http://www.w3.org/2000/svg" xmlns:xlink="http://www.w3.org/1999/xlink" id="v" x1="-14.263" x2="551.831" xlink:href="#a" y1="534.263" y2="-31.831"/><linearGradient xmlns="http://www.w3.org/2000/svg" xmlns:xlink="http://www.w3.org/1999/xlink" id="w" x1="31.737" x2="597.831" xlink:href="#a" y1="580.263" y2="14.169"/><linearGradient xmlns="http://www.w3.org/2000/svg" xmlns:xlink="http://www.w3.org/1999/xlink" id="x" x1="67.737" x2="633.831" xlink:href="#a" y1="616.263" y2="50.169"/><linearGradient xmlns="http://www.w3.org/2000/svg" xmlns:xlink="http://www.w3.org/1999/xlink" id="y" x1="43.737" x2="609.831" xlink:href="#a" y1="592.263" y2="26.169"/><linearGradient xmlns="http://www.w3.org/2000/svg" xmlns:xlink="http://www.w3.org/1999/xlink" id="z" x1="79.737" x2="645.831" xlink:href="#a" y1="628.263" y2="62.169"/><linearGradient xmlns="http://www.w3.org/2000/svg" xmlns:xlink="http://www.w3.org/1999/xlink" id="aa" x1="55.737" x2="621.831" xlink:href="#a" y1="604.263" y2="38.169"/><linearGradient xmlns="http://www.w3.org/2000/svg" xmlns:xlink="http://www.w3.org/1999/xlink" id="ab" x1="91.737" x2="657.831" xlink:href="#a" y1="640.263" y2="74.169"/><g xmlns="http://www.w3.org/2000/svg"><path d="m88 176h64a8 8 0 0 0 8-8v-52.686l13.657-13.657a8 8 0 0 0 -11.314-11.314l-6.592 6.593a7.955 7.955 0 0 0 -3.751-.936h-64a8 8 0 0 0 -8 8v64a8 8 0 0 0 8 8zm8-64h44.686l-20.686 20.687-2.343-2.344a8 8 0 0 0 -11.314 11.314l8 8a8 8 0 0 0 11.314 0l18.343-18.343v28.686h-48z" fill="url(#a)" data-original="url(#a)" style=""/><path d="m88 264h64a8 8 0 0 0 8-8v-64a8 8 0 0 0 -8-8h-64a8 8 0 0 0 -8 8v64a8 8 0 0 0 8 8zm8-64h48v48h-48z" fill="url(#b)" data-original="url(#b)" style="" class=""/><path d="m192 120h88a8 8 0 0 0 0-16h-88a8 8 0 0 0 0 16z" fill="url(#c)" data-original="url(#c)" style=""/><path d="m304 120h8a8 8 0 0 0 0-16h-8a8 8 0 0 0 0 16z" fill="url(#d)" data-original="url(#d)" style=""/><path d="m192 144h88a8 8 0 0 0 0-16h-88a8 8 0 0 0 0 16z" fill="url(#e)" data-original="url(#e)" style=""/><path d="m304 144h8a8 8 0 0 0 0-16h-8a8 8 0 0 0 0 16z" fill="url(#f)" data-original="url(#f)" style=""/><path d="m192 168h88a8 8 0 0 0 0-16h-88a8 8 0 0 0 0 16z" fill="url(#g)" data-original="url(#g)" style=""/><path d="m304 168h8a8 8 0 0 0 0-16h-8a8 8 0 0 0 0 16z" fill="url(#h)" data-original="url(#h)" style=""/><path d="m192 208h88a8 8 0 0 0 0-16h-88a8 8 0 0 0 0 16z" fill="url(#i)" data-original="url(#i)" style=""/><path d="m304 208h8a8 8 0 0 0 0-16h-8a8 8 0 0 0 0 16z" fill="url(#j)" data-original="url(#j)" style=""/><path d="m192 232h88a8 8 0 0 0 0-16h-88a8 8 0 0 0 0 16z" fill="url(#k)" data-original="url(#k)" style=""/><path d="m304 232h8a8 8 0 0 0 0-16h-8a8 8 0 0 0 0 16z" fill="url(#l)" data-original="url(#l)" style="" class=""/><path d="m192 256h88a8 8 0 0 0 0-16h-88a8 8 0 0 0 0 16z" fill="url(#m)" data-original="url(#m)" style=""/><path d="m304 256h8a8 8 0 0 0 0-16h-8a8 8 0 0 0 0 16z" fill="url(#n)" data-original="url(#n)" style=""/><path d="m88 352h64a8 8 0 0 0 8-8v-64a8 8 0 0 0 -8-8h-64a8 8 0 0 0 -8 8v64a8 8 0 0 0 8 8zm8-64h48v48h-48z" fill="url(#o)" data-original="url(#o)" style="" class=""/><path d="m192 296h88a8 8 0 0 0 0-16h-88a8 8 0 0 0 0 16z" fill="url(#p)" data-original="url(#p)" style="" class=""/><path d="m304 296h8a8 8 0 0 0 0-16h-8a8 8 0 0 0 0 16z" fill="url(#q)" data-original="url(#q)" style="" class=""/><path d="m192 320h88a8 8 0 0 0 0-16h-88a8 8 0 0 0 0 16z" fill="url(#r)" data-original="url(#r)" style=""/><path d="m304 320h8a8 8 0 0 0 0-16h-8a8 8 0 0 0 0 16z" fill="url(#s)" data-original="url(#s)" style=""/><path d="m192 344h88a8 8 0 0 0 0-16h-88a8 8 0 0 0 0 16z" fill="url(#t)" data-original="url(#t)" style=""/><path d="m304 344h8a8 8 0 0 0 0-16h-8a8 8 0 0 0 0 16z" fill="url(#u)" data-original="url(#u)" style=""/><path d="m88 440h64a8 8 0 0 0 8-8v-64a8 8 0 0 0 -8-8h-64a8 8 0 0 0 -8 8v64a8 8 0 0 0 8 8zm8-64h48v48h-48z" fill="url(#v)" data-original="url(#v)" style="" class=""/><path d="m192 384h88a8 8 0 0 0 0-16h-88a8 8 0 0 0 0 16z" fill="url(#w)" data-original="url(#w)" style=""/><path d="m304 384h8a8 8 0 0 0 0-16h-8a8 8 0 0 0 0 16z" fill="url(#x)" data-original="url(#x)" style=""/><path d="m192 408h88a8 8 0 0 0 0-16h-88a8 8 0 0 0 0 16z" fill="url(#y)" data-original="url(#y)" style="" class=""/><path d="m304 408h8a8 8 0 0 0 0-16h-8a8 8 0 0 0 0 16z" fill="url(#z)" data-original="url(#z)" style=""/><path d="m192 432h88a8 8 0 0 0 0-16h-88a8 8 0 0 0 0 16z" fill="url(#aa)" data-original="url(#aa)" style=""/><path d="m304 432h8a8 8 0 0 0 0-16h-8a8 8 0 0 0 0 16z" fill="url(#ab)" data-original="url(#ab)" style=""/><path d="m496 328h-112v-296a8 8 0 0 0 -8-8h-88v-8a8 8 0 0 0 -8-8h-160a8 8 0 0 0 -8 8v8h-88a8 8 0 0 0 -8 8v464a8 8 0 0 0 8 8h472a8 8 0 0 0 8-8v-160a8 8 0 0 0 -8-8zm-104 16h48v72l-19.2-14.4a8 8 0 0 0 -9.6 0l-19.2 14.4zm-40-304h16v288h-16zm-224-16h144v20a12.01 12.01 0 0 1 -12 12h-120a12.01 12.01 0 0 1 -12-12zm200 464h-296v-448h16v424a8 8 0 0 0 8 8h272zm8-160a8 8 0 0 0 -8 8v120h-264v-416h48v4a28.031 28.031 0 0 0 28 28h120a28.031 28.031 0 0 0 28-28v-4h48zm152 160h-144v-144h32v88a8 8 0 0 0 12.8 6.4l27.2-20.4 27.2 20.4a7.982 7.982 0 0 0 4.8 1.6 7.985 7.985 0 0 0 8-8v-88h32z" fill="url(#p)" data-original="url(#p)" style="" class=""/></g></g></svg>
