<?xml version="1.0"?>
<svg xmlns="http://www.w3.org/2000/svg" xmlns:xlink="http://www.w3.org/1999/xlink" xmlns:svgjs="http://svgjs.com/svgjs" version="1.1" width="512" height="512" x="0" y="0" viewBox="0 0 128 128" style="enable-background:new 0 0 512 512" xml:space="preserve" class=""><g><g xmlns="http://www.w3.org/2000/svg"><path d="m4.2 74.1c-.9.1-1.5.9-1.5 1.7v8.2c.1 12.5 19.1 19.7 31.3 22.4 9.7 2.2 20 3.2 30 3.2 4.9 0 9.7-.2 14.4-.7.8-.1 1.5-.8 1.6-1.6.3-3.6 3.5-6.3 7.1-6 2.4.2 4.5 1.7 5.5 3.9.3.8 1.2 1.2 2 1 2-.4 5.9-1.5 9.5-2.8.7-.2 1.2-.9 1.2-1.6v-17.5h18.3c1 0 1.8-.8 1.8-1.8v-16.6c0-1-.8-1.7-1.8-1.8-2.5 0-4.6-2-4.6-4.5 0-2.6 2.1-4.6 4.6-4.6 1 0 1.8-.8 1.8-1.8v-9.4c-.1-2.9-1.1-5.7-2.9-8 0-.1-.1-.1-.1-.2-10.2-12.9-41.6-17.3-58.4-17.3-34.4 0-61.3 11.2-61.3 25.6v17.5c0 .9.7 1.6 1.5 1.7 3 .4 5.1 3.2 4.7 6.2-.3 2.6-2.2 4.5-4.7 4.8zm14 23.2c-3.9-2-7.9-4.4-10.3-8.2 1.2-1.4 3-2.2 4.9-2.2 3.6 0 6.6 2.9 6.6 6.6 0 1.4-.4 2.7-1.2 3.8zm18.3 6.1c2.3-6.3 11.7-4.8 11.9 1.9-4.6-.4-8.2-1.1-11.9-1.9zm77.8-22.6h-9v-2.5c2.4-4.2 9-2.4 9 2.5zm7.5-29c-4.3 1-7.1 5.3-6.1 9.6.7 3 3.1 5.4 6.1 6.1v13.4h-4.1c0-6.4-7-10.5-12.5-7.3v-11.3c0-.4-.2-.8-.4-1.2l-12.3-13.7h29.3zm-57.8-30c15.3 0 46.6 4.2 55.6 16.2 0 .1.1.1.1.1 1.3 1.6 2 3.6 2.1 5.7h-33.2c-1.5 0-2.3 1.8-1.3 2.9l12.7 14.4c-10.9 3.4-26.7 5.6-43.7 4.7-16.1-.9-25.4-3.9-26.3-4.1-9-2.5-23.8-8.6-23.8-17.8 0-12 26.5-22.1 57.8-22.1zm-20.8 46.2c-.2 3.6-3.2 6.5-6.9 6.3-4.5-.2-7.5-4.7-5.9-8.9 4.1 1.1 8.7 2.1 12.8 2.6zm-37-8v-7.3c4.8 5.7 13.8 9.6 20.9 11.8-1.8 5.3 1 11 6.2 12.8 6.2 2.2 12.9-2.2 13.3-8.8 3 .4 6.2.6 9.4.8 27 1.5 45.5-5.1 45.6-5.1v36.5c-2 .7-4.2 1.3-6.6 1.9-2.9-4.7-9.2-6.2-13.9-3.2-2.3 1.4-3.9 3.7-4.5 6.2-8.3.7-16.6.7-24.9.1v-.1c0-5.3-4.3-9.6-9.6-9.6-4.2 0-7.9 2.7-9.2 6.8-4-1-7.9-2.2-11.7-3.8 1-1.6 1.5-3.4 1.5-5.3 0-5.6-4.5-10.1-10.1-10.1-2.3 0-4.6.8-6.4 2.3-.1-.6-.2-1.1-.2-1.7v-6.8c4.8-1.5 7.4-6.6 5.9-11.3-.7-3-2.9-5.2-5.7-6.1z" fill="#ffffff" data-original="#000000" style="" class=""/><path d="m89.2 82.6c0-4.9-4-8.9-8.9-8.9s-8.9 4-8.9 8.9 4 8.9 8.9 8.9 8.9-4 8.9-8.9zm-14.3 0c0-3 2.4-5.4 5.4-5.4s5.4 2.4 5.4 5.4-2.4 5.4-5.4 5.4-5.4-2.4-5.4-5.4z" fill="#ffffff" data-original="#000000" style="" class=""/><path d="m59.6 86.4c0-4.1-3.3-7.4-7.4-7.4s-7.4 3.3-7.4 7.4 3.3 7.4 7.4 7.4c4.1 0 7.4-3.3 7.4-7.4zm-11.3 0c0-2.1 1.7-3.9 3.9-3.9 2.1 0 3.9 1.7 3.9 3.9 0 2.1-1.7 3.9-3.9 3.9-2.1 0-3.9-1.7-3.9-3.9z" fill="#ffffff" data-original="#000000" style="" class=""/><path d="m32.5 89.7c1 0 1.7-.8 1.8-1.7 0-1-.8-1.7-1.8-1.7s-1.7.8-1.7 1.7.8 1.7 1.7 1.7z" fill="#ffffff" data-original="#000000" style="" class=""/><path d="m65.2 98.9c.7-.7.7-1.8 0-2.5s-1.8-.7-2.5 0-.7 1.8 0 2.5c.7.6 1.8.7 2.5 0z" fill="#ffffff" data-original="#000000" style="" class=""/><path d="m62.7 79c1 0 1.7-.8 1.8-1.7 0-.8-.5-1.5-1.4-1.7-1.1-.2-2.1.6-2.1 1.7 0 1 .8 1.8 1.7 1.7z" fill="#ffffff" data-original="#000000" style="" class=""/><path d="m21.1 74.2c.7-.7.7-1.8 0-2.5-.8-.7-1.9-.6-2.5 0s-.7 1.7 0 2.5c.7.6 1.8.7 2.5 0z" fill="#ffffff" data-original="#000000" style="" class=""/><path d="m108.1 55.9c.7-.7.6-1.8 0-2.5-.7-.6-1.8-.6-2.5 0-.6.7-.7 1.8 0 2.5s1.8.7 2.5 0z" fill="#ffffff" data-original="#000000" style="" class=""/></g></g></svg>
