<?xml version="1.0"?>
<svg xmlns="http://www.w3.org/2000/svg" xmlns:xlink="http://www.w3.org/1999/xlink" xmlns:svgjs="http://svgjs.com/svgjs" version="1.1" width="512" height="512" x="0" y="0" viewBox="0 0 512 512" style="enable-background:new 0 0 512 512" xml:space="preserve" class=""><g><path xmlns="http://www.w3.org/2000/svg" d="m488.97 412.263h-106.502c10.61-8.384 19.826-18.495 27.219-30.002 12.669-19.718 19.365-42.583 19.365-66.121v-6.973c0-13.01-2.031-25.82-6.036-38.074-.167-.512-.386-.993-.645-1.442 4.853-15.545 6.579-29.311 5.223-40.675l31.234-31.234c5.913 4.739 13.224 7.257 20.909 7.147 8.931-.125 17.232-3.774 23.376-10.274 11.594-12.266 11.878-31.73.647-44.313-5.512-6.174-13-9.969-21.076-10.802-.832-8.074-4.627-15.563-10.803-21.076-12.579-11.231-32.044-10.947-44.31.645-6.5 6.144-10.15 14.446-10.276 23.375-.108 7.687 2.4 14.977 7.151 20.91l-31.235 31.234c-6.813-.814-14.488-.537-22.94.894-3.881.657-7.888 1.55-11.971 2.646-.068-.034-.132-.074-.202-.107-8.5-3.947-17.316-6.862-26.373-8.752.736-6.355.78-12.225.144-17.558l31.227-31.228c5.913 4.739 13.224 7.215 20.911 7.148 8.931-.126 17.232-3.774 23.377-10.275 11.593-12.266 11.876-31.729.646-44.312-5.513-6.175-13.001-9.97-21.076-10.802-.832-8.073-4.627-15.563-10.803-21.077-7.838-6.995-18.705-9.779-29.069-7.451-4.074.917-6.634 4.962-5.718 9.035.917 4.074 4.965 6.63 9.035 5.718 5.619-1.264 11.476.225 15.682 3.979 4.02 3.589 6.171 8.725 5.903 14.089-.145 2.863.937 5.67 2.969 7.703 2.032 2.034 4.832 3.132 7.704 2.974 5.355-.262 10.505 1.882 14.092 5.902 6.044 6.772 5.889 17.25-.354 23.856-3.315 3.507-7.79 5.475-12.601 5.542-4.783.097-9.303-1.754-12.702-5.132-.019-.02-.038-.039-.058-.06-2.167-2.173-5.04-3.372-8.093-3.375-.004 0-.008 0-.012 0-3.016 0-5.852 1.174-7.989 3.309l-28.073 28.073c-1.535-2.775-3.372-5.277-5.547-7.452-2.176-2.176-4.67-4.022-7.447-5.554l28.065-28.065c2.137-2.136 3.314-4.976 3.311-7.998-.002-3.025-1.178-5.874-3.314-8.033-.027-.028-.054-.055-.081-.082-3.372-3.372-5.21-7.856-5.173-12.626.032-4.175-3.328-7.586-7.503-7.618-.02 0-.038 0-.058 0-4.148 0-7.528 3.348-7.559 7.503-.057 7.618 2.46 14.842 7.151 20.697l-31.234 31.234c-11.737-1.4-26.032.478-42.207 5.702-23.495 7.588-48.171 21.576-61.403 34.807-5.829 5.83-10.495 12.551-13.903 19.976-70.491 25.793-120.937 93.545-120.937 172.858v33.917c0 2.605.298 5.173.873 7.669h-37.031c-12.611 0-22.87 10.26-22.87 22.87v1.086c0 12.611 10.26 22.87 22.87 22.87h466.1c12.611 0 22.87-10.26 22.87-22.87v-1.086c.001-12.609-10.259-22.869-22.87-22.869zm-51.297-240.75c2.135-2.136 3.311-4.976 3.308-7.998-.002-3.054-1.201-5.928-3.393-8.115-3.404-3.403-5.24-7.929-5.172-12.742.068-4.811 2.036-9.285 5.542-12.599 6.605-6.246 17.084-6.4 23.855-.355 4.02 3.589 6.171 8.725 5.903 14.094-.144 2.863.94 5.67 2.974 7.702 2.034 2.033 4.831 3.127 7.699 2.969 5.355-.259 10.504 1.883 14.092 5.903 6.044 6.772 5.889 17.251-.354 23.856-3.315 3.507-7.789 5.474-12.601 5.542-4.798.069-9.337-1.769-12.74-5.172-.028-.029-.056-.056-.085-.083-2.159-2.134-5.007-3.309-8.03-3.312-.003 0-.006 0-.01 0-3.016 0-5.853 1.175-7.988 3.309l-28.067 28.067c-1.532-2.776-3.378-5.27-5.553-7.445s-4.677-4.013-7.453-5.548zm-233.114 17.024c11.508-11.509 34.272-24.302 55.358-31.111 23.811-7.691 42.295-7.274 50.711 1.144 6.683 6.682 7.29 18.305 6.139 28.534-3.372-.275-6.771-.415-10.194-.415h-63.557c-14.096 0-27.826 1.599-41.021 4.615.824-.946 1.671-1.874 2.564-2.767zm292.161 247.683c0 4.273-3.476 7.749-7.749 7.749h-466.101c-4.273 0-7.749-3.476-7.749-7.749v-1.086c0-4.273 3.477-7.749 7.749-7.749h96.565c4.175 0 7.56-3.384 7.56-7.56s-3.385-7.56-7.56-7.56h-43.656c-1.066-2.397-1.631-4.996-1.631-7.669v-33.917c0-93.114 75.754-168.869 168.869-168.869h63.557c10.093 0 19.946 1.374 29.452 4.085-6.036 2.569-12.067 5.5-17.957 8.763-3.653 2.023-4.973 6.624-2.95 10.276 2.023 3.654 6.624 4.973 10.276 2.95 29.75-16.478 67.115-25.91 80.964-12.057 8.417 8.416 8.833 26.9 1.144 50.71-6.81 21.087-19.603 43.85-31.111 55.357-20.98 20.983-55.121 20.982-76.101 0-20.981-20.981-20.981-55.119 0-76.1 2.952-2.953 2.952-7.74 0-10.693-2.953-2.951-7.74-2.951-10.693 0-13.019 13.02-20.19 30.33-20.19 48.743s7.171 35.723 20.19 48.743c13.02 13.019 30.331 20.19 48.744 20.19 18.412 0 35.723-7.171 48.743-20.19 8.976-8.976 18.298-23.221 25.736-38.789.726 5.068 1.111 10.198 1.111 15.369v6.973c0 40.524-23.316 78.061-59.528 96.124h-202.31c-4.175 0-7.56 3.384-7.56 7.56s3.385 7.56 7.56 7.56h336.876c4.273 0 7.749 3.476 7.749 7.749v1.087z" fill="#ffffff" data-original="#000000" style=""/><circle xmlns="http://www.w3.org/2000/svg" cx="149.205" cy="297.849" r="9.889" fill="#ffffff" data-original="#000000" style=""/><ellipse xmlns="http://www.w3.org/2000/svg" cx="195.07" cy="326.623" rx="9.889" ry="9.889" transform="matrix(.987 -.16 .16 .987 -49.801 35.464)" fill="#ffffff" data-original="#000000" style=""/><ellipse xmlns="http://www.w3.org/2000/svg" cx="128.507" cy="326.623" rx="9.889" ry="9.889" transform="matrix(.383 -.924 .924 .383 -222.431 320.356)" fill="#ffffff" data-original="#000000" style=""/></g></svg>
