<?xml version="1.0"?>
<svg xmlns="http://www.w3.org/2000/svg" xmlns:xlink="http://www.w3.org/1999/xlink" xmlns:svgjs="http://svgjs.com/svgjs" version="1.1" width="512" height="512" x="0" y="0" viewBox="0 0 64 64" style="enable-background:new 0 0 512 512" xml:space="preserve" class=""><g><linearGradient xmlns="http://www.w3.org/2000/svg" id="SVGID_1_" gradientUnits="userSpaceOnUse" x1="32" x2="32" y1="63" y2="1"><stop stop-opacity="1" stop-color="#83bb26" offset="0"/><stop stop-opacity="1" stop-color="#35a233" offset="1"/></linearGradient><path xmlns="http://www.w3.org/2000/svg" d="m48 1c-6.516 0-12.059 4.183-14.125 10h-29.875c-1.654 0-3 1.346-3 3v40c0 1.654 1.346 3 3 3h25.586l5.293 5.294c.45.448 1.072.706 1.707.706 1.331 0 2.414-1.083 2.414-2.414v-3.586h17c1.654 0 3-1.346 3-3v-27.836c2.474-2.676 4-6.24 4-10.164 0-8.271-6.729-15-15-15zm12.637 12h-8.916l-3.327-9.98c5.959.18 10.912 4.38 12.243 9.98zm-8.38 9.54-4.257-3.015-4.257 3.015 1.419-4.967-3.859-2.573h4.418l2.279-6.838 2.279 6.838h4.418l-3.859 2.573zm-16.991-9.161 7.572 5.048-2.335 8.175c-3.324-2.358-5.503-6.227-5.503-10.602 0-.898.092-1.774.266-2.621zm12.734 8.598 7.002 4.959c-2.023 1.3-4.423 2.064-7.002 2.064s-4.979-.764-7.002-2.064zm-.394-18.957-3.327 9.98h-8.916c1.331-5.6 6.284-9.8 12.243-9.98zm8.394 51.98h-19v5.586c0 .338-.467.532-.707.293l-5.879-5.879h-26.414c-.551 0-1-.448-1-1v-40c0-.552.449-1 1-1h29.302c-.197.97-.302 1.973-.302 3 0 8.271 6.729 15 15 15 3.379 0 6.49-1.136 9-3.028v26.028c0 .552-.449 1-1 1zm-.503-28.398-2.335-8.175 7.572-5.048c.174.847.266 1.723.266 2.621 0 4.375-2.179 8.244-5.503 10.602zm-29.025 13.963-2.714-.453-.459-1.377c1.678-1.075 2.925-2.757 3.437-4.735h.264c2.206 0 4-1.794 4-4 0-.947-.344-1.806-.896-2.491l.721-2.686c.116-.466.175-.943.175-1.421 0-2.454-1.549-4.666-3.855-5.505l-6.578-2.392c-.922-.335-1.887-.505-2.87-.505-2.628 0-5.139 1.255-6.715 3.357l-.508.677c-1.958.259-3.474 1.939-3.474 3.966 0 1.608.565 3.587.871 4.539-.537.681-.871 1.528-.871 2.461 0 2.206 1.794 4 4 4h.263c.512 1.979 1.759 3.66 3.437 4.735l-.459 1.377-2.713.453c-1.99.33-3.754 1.402-4.966 3.018-1.007 1.344-1.562 3.008-1.562 4.688v4.729h28v-4.729c0-1.68-.555-3.344-1.563-4.687-1.211-1.616-2.975-2.688-4.965-3.019zm-2.227 1.657-1.609 3.256-1.969-1.478 2.591-1.943zm2.755-10.222v-4c1.103 0 2 .897 2 2s-.897 2-2 2zm-16-11h.5l1.082-1.442c1.201-1.602 3.113-2.558 5.115-2.558.749 0 1.483.13 2.185.385l6.579 2.392c1.518.552 2.539 2.009 2.539 3.625 0 .314-.039.629-.111.919l-.519 1.936c-.429-.158-.887-.257-1.37-.257h-.837l-.164-.055c-1.608-.535-3.092-1.452-4.292-2.652l-.707-.707-.707.707c-1.746 1.746-4.067 2.707-6.536 2.707h-1.757-1c-.503 0-.979.104-1.422.273-.265-.921-.578-2.228-.578-3.273 0-1.103.897-2 2-2zm-2 9c0-1.103.897-2 2-2v4c-1.103 0-2-.897-2-2zm4 2v-4h.757c2.679 0 5.216-.931 7.24-2.64 1.18 1.015 2.543 1.818 4.003 2.354v4.286c0 3.309-2.691 6-6 6s-6-2.691-6-6zm6 8c.866 0 1.698-.143 2.48-.398l.344 1.031-2.824 2.117-2.823-2.117.344-1.031c.781.255 1.613.398 2.479.398zm-4.257 2.057 2.59 1.943-1.97 1.478-1.609-3.256zm16.257 8.943h-24v-2.729c0-1.249.413-2.487 1.162-3.487.869-1.157 2.123-1.928 3.538-2.203l2.937 5.943 4.363-3.274 4.363 3.273 2.937-5.943c1.415.276 2.669 1.046 3.538 2.205.749.998 1.162 2.236 1.162 3.486zm4-4h20v2h-20zm0-8h20v2h-20zm6-2h-6v-2h6zm2-2h12v2h-12zm6 8h6v2h-6zm-2 2h-12v-2h12zm-12 6h2v2h-2zm4 0h2v2h-2zm4 0h2v2h-2z" fill="url(#SVGID_1_)" data-original="url(#SVGID_1_)" style=""/></g></svg>
