<?xml version="1.0"?>
<svg xmlns="http://www.w3.org/2000/svg" xmlns:xlink="http://www.w3.org/1999/xlink" xmlns:svgjs="http://svgjs.com/svgjs" version="1.1" width="512" height="512" x="0" y="0" viewBox="0 0 512 512" style="enable-background:new 0 0 512 512" xml:space="preserve" class=""><g><linearGradient xmlns="http://www.w3.org/2000/svg" id="SVGID_1_" gradientUnits="userSpaceOnUse" x1="256" x2="256" y1="421" y2="91"><stop stop-opacity="1" stop-color="#83bb26" offset="0"/><stop stop-opacity="1" stop-color="#35a233" offset="1"/></linearGradient><linearGradient xmlns="http://www.w3.org/2000/svg" id="SVGID_2_" gradientUnits="userSpaceOnUse" x1="346.85" x2="346.85" y1="389.5" y2="122.5"><stop offset="0" stop-color="#ffe59a"/><stop offset="1" stop-color="#ffffd5"/></linearGradient><g xmlns="http://www.w3.org/2000/svg"><g><g><path d="m347 91c-21.207 0-41.607 4.158-60.894 11.911-13.661-7.665-28.689-11.911-44.106-11.911-60.41 0-90 27.407-116.133 51.592-22.265 20.61-41.484 38.408-78.867 38.408-8.291 0-15 6.709-15 15 0 1.831.85 45 75 45 8.262 0 15 6.724 15 15s-6.738 15-15 15c-97.441 0-107 34.438-107 45 0 8.291 6.709 15 15 15 35.098 0 55.936 15.366 79.754 34.819 30.117 24.58 67.588 55.181 147.246 55.181 15.417 0 30.447-4.248 44.108-11.913 19.3 7.757 39.694 11.913 60.892 11.913 90.528 0 165-73.618 165-165 0-90.53-73.618-165-165-165z" fill="url(#SVGID_1_)" data-original="url(#SVGID_1_)" style=""/></g></g><g><g><path d="m452 256c0-8.401 6.599-15 15-15h13.5c-3.001-25.8-12.9-49.501-28.5-68.701l-9.6 9.3c-6.373 6.377-15.687 5.614-21.301 0-5.698-5.7-5.698-15.298 0-20.999l9.6-9.6c-19.199-15.601-42.9-25.501-68.699-28.5v13.5c0 8.399-6.599 15-15 15s-15-6.601-15-15v-13.5c-28.647 3.657-47.168 10.885-69 28.2l9.901 9.9c5.698 5.7 5.698 15.298 0 20.999-5.568 5.568-14.874 6.431-21.301 0l-9.9-9.599c-15.601 19.799-25.8 43.499-28.5 69h13.8c8.401 0 15 6.599 15 15 0 8.399-6.599 15-15 15h-13.801c2.701 25.499 12.9 49.2 28.5 69l9.901-9.6c5.7-6 15.3-6 21.301 0 5.698 5.7 5.698 15.3 0 21l-9.901 9.9c21.784 17.276 40.294 24.536 69 28.2v-13.5c0-8.401 6.599-15 15-15s15 6.599 15 15v13.5c25.8-3.001 49.501-12.902 68.699-28.5l-9.6-9.6c-5.698-5.7-5.698-15.3 0-21 6-6 15.601-6 21.301 0l9.6 9.3c15.601-19.2 25.499-42.899 28.5-68.699h-13.5c-8.401-.001-15-6.602-15-15.001zm-45 15h-60c-8.401 0-15-6.601-15-15v-60c0-8.401 6.599-15 15-15s15 6.599 15 15v45h45c8.401 0 15 6.599 15 15 0 8.399-6.599 15-15 15z" fill="url(#SVGID_2_)" data-original="url(#SVGID_2_)" style=""/></g></g></g></g></svg>
