<?xml version="1.0"?>
<svg xmlns="http://www.w3.org/2000/svg" xmlns:xlink="http://www.w3.org/1999/xlink" xmlns:svgjs="http://svgjs.com/svgjs" version="1.1" width="512" height="512" x="0" y="0" viewBox="0 0 496.238 496.238" style="enable-background:new 0 0 512 512" xml:space="preserve" class=""><g>
<g xmlns="http://www.w3.org/2000/svg">
	<g>
		<path d="M360.119,320.238h-24.8c-2.4-20-14.4-37.6-31.2-47.2v-8.8c0-30.4-24.8-56-55.2-56c-3.2,0-6.4,0-8.8,0.8    c-16.8-30.4-56-41.6-86.4-24.8c-10.4,5.6-19.2,14.4-24.8,24.8c-30.4-4.8-59.2,16-64,46.4c-0.8,2.4-0.8,5.6-0.8,8.8v8.8    c-17.6,10.4-28.8,27.2-31.2,47.2h-24.8c-4.8,0-8,3.2-8,8c0,92.8,75.2,168,168,168h32c92.8,0,168-75.2,168-168    C368.119,323.438,364.919,320.238,360.119,320.238z M96.119,280.238v-16c-5.6,0-10.4,0.8-16,2.4v-2.4c0-22.4,17.6-40,40-40    s40,17.6,40,40h16c0-21.6-12.8-41.6-32-50.4c14.4-22.4,44-28,66.4-13.6c5.6,3.2,10.4,8,13.6,13.6c-19.2,9.6-32,28.8-32,50.4h16    c0-22.4,17.6-40,40-40c22.4,0,40,17.6,40,40v2.4c-5.6-1.6-10.4-2.4-16-2.4v16c23.2,0,43.2,16.8,47.2,40    c-23.2,0.8-45.6,7.2-66.4,16.8c-4-10.4-12-18.4-21.6-22.4c0-0.8,0-2.4,0-3.2c0-17.6-14.4-32-32-32v16c8.8,0,16,7.2,16,16    s-7.2,16-16,16v16c10.4,0,20-4.8,26.4-13.6c6.4,3.2,11.2,8,12.8,15.2c-22.4,14.4-41.6,33.6-55.2,56.8    c-13.6-22.4-32.8-41.6-55.2-56c1.6-6.4,6.4-12.8,12.8-15.2c5.6,8.8,16,13.6,26.4,13.6v-16c-8.8,0-16-7.2-16-16s7.2-16,16-16v-16    c-17.6,0-32,14.4-32,32c0,0.8,0,2.4,0,3.2c-9.6,4-17.6,12.8-21.6,22.4c-20.8-10.4-43.2-16-66.4-17.6    C52.119,297.038,72.919,280.238,96.119,280.238z M16.119,336.238h24c2.4,0,5.6,0,8,0v8c0,51.2,25.6,98.4,68,126.4    C59.319,450.638,19.319,397.038,16.119,336.238z M64.119,344.238v-5.6c70.4,11.2,124,70.4,128,141.6    C120.119,475.438,64.119,416.238,64.119,344.238z M192.919,418.638c21.6-43.2,63.2-73.6,111.2-80.8v6.4c0,56-44.8,102.4-100.8,104    C200.919,437.838,196.919,428.238,192.919,418.638z M207.319,480.238c0-5.6-0.8-10.4-1.6-16c64-3.2,113.6-56,113.6-120v-8    c2.4,0,5.6,0,8,0h24C347.319,413.838,285.719,476.238,207.319,480.238z" fill="#ffffff" data-original="#000000" style="" class=""/>
	</g>
</g>
<g xmlns="http://www.w3.org/2000/svg">
	<g>
		<path d="M486.519,113.838c0.8-3.2,1.6-6.4,1.6-9.6c0-11.2-6.4-22.4-16-28c0-1.6,0-3.2,0-4c0-16-9.6-30.4-24-36.8    c-2.4-21.6-22.4-37.6-44-35.2c-8.8,0.8-17.6,4.8-23.2,11.2c-15.2-15.2-40.8-15.2-56,0c-16-15.2-40.8-15.2-56,0    c-6.4,6.4-10.4,14.4-11.2,23.2c-16,7.2-25.6,21.6-25.6,37.6v0.8c-14.4,4-24,16-24,31.2c0,3.2,0.8,6.4,1.6,9.6    c-12.8,12.8-12.8,32.8,0,44.8c10.4,10.4,26.4,12.8,38.4,4.8c8,4.8,17.6,5.6,26.4,2.4l45.6,45.6v36.8c0,4.8,3.2,8,8,8h48    c4.8,0,8-3.2,8-8v-36.8l44-44c1.6,0,3.2,0,4,0.8c5.6,0,11.2-1.6,16-4c4.8,3.2,10.4,4,16,4c17.6,0,32-14.4,32-32    C496.119,127.438,492.919,119.438,486.519,113.838z M248.119,72.238c0-11.2,7.2-20.8,18.4-23.2c3.2-0.8,5.6-4,5.6-8    c0-0.8,0-0.8,0-0.8c0-12.8,10.4-24,24-24c8.8,0,16.8,4.8,20.8,12.8c2.4,4,8,4.8,11.2,2.4c0.8-0.8,1.6-1.6,2.4-2.4    c6.4-11.2,20.8-16,32-9.6c4,2.4,8,5.6,9.6,9.6c2.4,4,8,4.8,11.2,2.4c0.8-0.8,1.6-1.6,2.4-2.4c6.4-12,20.8-16,32.8-9.6    c8.8,4,13.6,12,13.6,20c0,0,0,0.8,0,1.6c0,4,2.4,7.2,6.4,8c12.8,3.2,20.8,16,17.6,28.8c-2.4,8.8-8.8,15.2-17.6,17.6    c-3.2,0.8-5.6,3.2-6.4,6.4c-3.2,12.8-16,20.8-28.8,18.4c-6.4-1.6-12.8-5.6-16-12c-2.4-4-8-4.8-11.2-2.4c-0.8,0.8-1.6,1.6-2.4,2.4    c-6.4,11.2-20.8,16-32,9.6c-4-2.4-8-5.6-9.6-9.6c-2.4-4-8-4.8-11.2-2.4c-0.8,0.8-1.6,1.6-2.4,2.4c-4.8,8.8-15.2,13.6-25.6,12    c-5.6-8-12.8-12.8-20.8-15.2v-0.8c0-14.4-9.6-27.2-24-31.2C248.119,72.238,248.119,72.238,248.119,72.238z M392.119,133.038    l-16,16v-20.8c1.6-0.8,2.4-2.4,4-3.2C383.319,128.238,388.119,131.438,392.119,133.038z M328.119,128.238v20.8l-16-16    c4.8-1.6,8.8-4.8,12-8C325.719,125.838,326.519,126.638,328.119,128.238z M264.119,152.238c-4,0-8-1.6-10.4-4    c-3.2-2.4-8-2.4-10.4,0c-3.2,2.4-7.2,4-11.2,4c-8.8,0-16-7.2-16-16c0-5.6,3.2-10.4,7.2-13.6c4-2.4,4.8-7.2,2.4-10.4    c-1.6-2.4-2.4-4.8-2.4-8c0-8.8,7.2-16,16-16s16,7.2,16,16c0,1.6,0,4-0.8,5.6c-0.8,2.4-0.8,5.6,0.8,7.2c1.6,2.4,4,3.2,7.2,3.2h1.6    c8.8,0,16,7.2,16,16C280.119,145.038,272.919,152.238,264.119,152.238z M370.519,202.638c-1.6,1.6-2.4,3.2-2.4,5.6v32h-32v-32    c0-2.4-0.8-4-2.4-5.6l-45.6-45.6c4-4.8,7.2-11.2,7.2-17.6l34.4,34.4c3.2,3.2,8,3.2,11.2,0c1.6-1.6,2.4-3.2,2.4-5.6v-32.8    c5.6,0.8,10.4,0.8,16,0v32.8c0,4.8,3.2,8,8,8c2.4,0,4-0.8,5.6-2.4l28-28c1.6,5.6,5.6,11.2,10.4,15.2L370.519,202.638z     M476.919,145.038c-4.8,8-14.4,9.6-22.4,4.8c-0.8-0.8-1.6-0.8-2.4-1.6c-3.2-2.4-8-2.4-10.4,0c-1.6,2.4-5.6,4-9.6,4    c-8.8,0-16-7.2-16-16v-0.8c13.6-2.4,24.8-12.8,29.6-25.6c8.8-3.2,16-9.6,20.8-17.6c3.2,3.2,5.6,7.2,5.6,12c0,2.4-0.8,5.6-2.4,8    c-2.4,4-0.8,8.8,2.4,10.4C479.319,127.438,481.719,137.038,476.919,145.038z" fill="#ffffff" data-original="#000000" style="" class=""/>
	</g>
</g>
<g xmlns="http://www.w3.org/2000/svg">
	<g>
		<path d="M400.119,40.238c-13.6,0-24,10.4-24,24h16c0-4.8,3.2-8,8-8s8,3.2,8,8s-3.2,8-8,8v16c13.6,0,24-10.4,24-24    S413.719,40.238,400.119,40.238z" fill="#ffffff" data-original="#000000" style="" class=""/>
	</g>
</g>
<g xmlns="http://www.w3.org/2000/svg">
	<g>
		<path d="M280.119,64.238h16c0-4.8,3.2-8,8-8v-16C290.519,40.238,280.119,50.638,280.119,64.238z" fill="#ffffff" data-original="#000000" style="" class=""/>
	</g>
</g>
<g xmlns="http://www.w3.org/2000/svg">
	<g>
		<path d="M312.119,64.238c0,4.8-3.2,8-8,8v16c13.6,0,24-10.4,24-24H312.119z" fill="#ffffff" data-original="#000000" style="" class=""/>
	</g>
</g>
<g xmlns="http://www.w3.org/2000/svg">
	<g>
		<path d="M464.119,432.238c-17.6,0-32,14.4-32,32c0,17.6,14.4,32,32,32c17.6,0,32-14.4,32-32    C496.119,446.638,481.719,432.238,464.119,432.238z M464.119,480.238c-8.8,0-16-7.2-16-16s7.2-16,16-16s16,7.2,16,16    S472.919,480.238,464.119,480.238z" fill="#ffffff" data-original="#000000" style="" class=""/>
	</g>
</g>
<g xmlns="http://www.w3.org/2000/svg">
	<g>
		<path d="M424.119,344.238c-22.4,0-40,17.6-40,40c0,22.4,17.6,40,40,40c22.4,0,40-17.6,40-40    C464.119,361.838,446.519,344.238,424.119,344.238z M424.119,408.238c-13.6,0-24-10.4-24-24c0-13.6,10.4-24,24-24    c13.6,0,24,10.4,24,24C448.119,397.838,437.719,408.238,424.119,408.238z" fill="#ffffff" data-original="#000000" style="" class=""/>
	</g>
</g>
<g xmlns="http://www.w3.org/2000/svg">
	<g>
		<path d="M40.119,0.238c-22.4,0-40,17.6-40,40s17.6,40,40,40s40-17.6,40-40S62.519,0.238,40.119,0.238z M40.119,64.238    c-13.6,0-24-10.4-24-24s10.4-24,24-24s24,10.4,24,24S53.719,64.238,40.119,64.238z" fill="#ffffff" data-original="#000000" style="" class=""/>
	</g>
</g>
<g xmlns="http://www.w3.org/2000/svg">
	<g>
		<path d="M128.119,64.238c-17.6,0-32,14.4-32,32s14.4,32,32,32c17.6,0,32-14.4,32-32S145.719,64.238,128.119,64.238z     M128.119,112.238c-8.8,0-16-7.2-16-16s7.2-16,16-16s16,7.2,16,16S136.919,112.238,128.119,112.238z" fill="#ffffff" data-original="#000000" style="" class=""/>
	</g>
</g>
<g xmlns="http://www.w3.org/2000/svg">
	<g>
		<path d="M40.119,112.238c-13.6,0-24,10.4-24,24c0,13.6,10.4,24,24,24s24-10.4,24-24C64.119,122.638,53.719,112.238,40.119,112.238    z M40.119,144.238c-4.8,0-8-3.2-8-8s3.2-8,8-8s8,3.2,8,8S44.919,144.238,40.119,144.238z" fill="#ffffff" data-original="#000000" style="" class=""/>
	</g>
</g>
<g xmlns="http://www.w3.org/2000/svg">
</g>
<g xmlns="http://www.w3.org/2000/svg">
</g>
<g xmlns="http://www.w3.org/2000/svg">
</g>
<g xmlns="http://www.w3.org/2000/svg">
</g>
<g xmlns="http://www.w3.org/2000/svg">
</g>
<g xmlns="http://www.w3.org/2000/svg">
</g>
<g xmlns="http://www.w3.org/2000/svg">
</g>
<g xmlns="http://www.w3.org/2000/svg">
</g>
<g xmlns="http://www.w3.org/2000/svg">
</g>
<g xmlns="http://www.w3.org/2000/svg">
</g>
<g xmlns="http://www.w3.org/2000/svg">
</g>
<g xmlns="http://www.w3.org/2000/svg">
</g>
<g xmlns="http://www.w3.org/2000/svg">
</g>
<g xmlns="http://www.w3.org/2000/svg">
</g>
<g xmlns="http://www.w3.org/2000/svg">
</g>
</g></svg>
