<?xml version="1.0"?>
<svg xmlns="http://www.w3.org/2000/svg" xmlns:xlink="http://www.w3.org/1999/xlink" xmlns:svgjs="http://svgjs.com/svgjs" version="1.1" width="512" height="512" x="0" y="0" viewBox="0 0 511.773 511.773" style="enable-background:new 0 0 512 512" xml:space="preserve"><g><g xmlns="http://www.w3.org/2000/svg"><path d="m320.578 81.264c3.418 8.868 17.481 3.644 13.996-5.396-4.411-11.44-10.656-21.4-17.586-28.046-7.001-6.71-17.381 4.116-10.382 10.827 5.297 5.08 10.39 13.323 13.972 22.615z" fill="#ffffff" data-original="#000000" style=""/><path d="m491.755 314.611c-12.145-18.767-27.627-30.193-44.217-32.847v-30.76c29.124-2.527 27.283-47.705-2.082-47.705h-10.359c.326-3.519.504-7.115.504-10.772 0-24.51-7.296-49.842-20.018-69.499-12.631-19.518-28.872-31.1-46.215-33.127-3.47-19.867-11.255-38.528-22.256-53.089-13.344-17.662-30.206-27.389-47.48-27.389-17.136 0-33.894 9.589-47.186 27.001-7.101 9.301-12.88 20.33-17.055 32.297-1.171-3.342-2.462-6.636-3.897-9.864-6.957-15.648-19.73-36.224-41.08-45.378-17.847-7.653-38.226-3.848-54.515 10.177-7.349 6.328 2.439 17.694 9.787 11.367 12.023-10.354 26.171-13.181 38.816-7.758 9.317 3.996 22.656 13.777 33.284 37.686 3.622 8.146 6.289 16.739 7.989 25.622-15.785 3.257-30.469 14.491-42.094 32.455-5.085 7.857-9.286 16.629-12.518 25.885-3.232-9.255-7.433-18.028-12.518-25.885-11.626-17.964-26.31-29.199-42.096-32.456.508-2.643 8.33-22.33 5.381-25.446-3.816-4.032-10.89-7.397-13.852.43-2.969 7.848-5.201 16.02-6.661 24.346-17.34 2.029-33.578 13.61-46.207 33.126-12.721 19.657-20.017 44.988-20.017 69.499 0 3.657.178 7.253.504 10.772h-10.355c-29.05 0-31.594 45.145-2.082 47.705v76.353c0 24.092 11.664 45.509 29.64 58.907h-45.627c-9.697 0-9.697 15 0 15h229.377c-6.301 9.168-9.615 19.119-9.615 29.357 0 19.391 11.88 37.757 33.451 51.715 19.658 12.721 44.99 20.016 69.502 20.016 37.001 0 65.465-17.189 76.885-44.094 19.273 10.403 43.956 10.898 63.658 1.378 8.732-4.219 2.205-17.722-6.526-13.506-16.387 7.92-37.317 6.956-52.779-2.685.721-4.125 1.114-8.4 1.114-12.824 0-23.706-10.672-43.397-28.608-56.114 3.642-42.549 29.3-78.344 56.308-78.344 14.129 0 28.024 9.446 39.124 26.599 11.191 17.293 17.61 39.654 17.61 61.349 0 10.76-1.598 20.677-4.75 29.477-3.182 8.883 10.835 14.233 14.121 5.058 3.735-10.427 5.628-22.045 5.628-34.534 0-24.513-7.296-49.844-20.018-69.501zm-88.763-183.435c11.191 17.293 17.61 39.654 17.61 61.349 0 3.684-.212 7.278-.588 10.772h-112.292c-.376-3.495-.588-7.09-.588-10.772 0-21.695 6.419-44.056 17.61-61.349 11.1-17.152 24.995-26.598 39.124-26.598s28.024 9.447 39.124 26.598zm-138.621-85.651c10.389-13.608 22.913-21.103 35.263-21.103 24.021 0 47.538 29.05 54.626 66.147-15.791 3.253-30.48 14.489-42.109 32.458-5.085 7.857-9.286 16.629-12.518 25.885-3.232-9.255-7.433-18.028-12.518-25.885-11.625-17.963-26.308-29.198-42.093-32.455 3.257-16.855 10.144-32.99 19.349-45.047zm-68.096 85.651c21.861-33.78 56.172-34.111 78.248 0 11.191 17.293 17.61 39.654 17.61 61.349 0 3.682-.212 7.277-.588 10.772h-112.292c-.376-3.495-.588-7.09-.588-10.772 0-21.694 6.419-44.055 17.61-61.349zm-146.079 61.35c0-21.695 6.418-44.056 17.61-61.349 11.1-17.152 24.995-26.598 39.124-26.598s28.024 9.446 39.124 26.598c11.191 17.293 17.61 39.654 17.61 61.349 0 3.683-.212 7.278-.588 10.772h-112.292c-.376-3.494-.588-7.089-.588-10.772zm-33.754 34.671c0-4.907 3.993-8.899 8.9-8.899h420.115c11.504 0 11.505 17.801 0 17.801h-420.115c-4.907 0-8.9-3.992-8.9-8.902zm380.897 203.423c0 15.607-6.131 29.764-17.264 39.863-12.164 11.035-29.484 16.868-50.088 16.868-21.696 0-44.059-6.418-61.353-17.609-17.153-11.1-26.6-24.993-26.6-39.122s9.447-28.022 26.6-39.122c17.294-11.191 39.657-17.609 61.353-17.609 20.604 0 37.924 5.833 50.088 16.868 11.132 10.099 17.264 24.256 17.264 39.863zm-27.809-64.04c-11.481-4.962-24.833-7.691-39.542-7.691-24.511 0-49.844 7.295-69.502 20.016-3.384 2.19-6.53 4.489-9.428 6.883h-154.366c-32.22 0-58.432-26.212-58.432-58.432v-76.256h394.278v30.654c-33.441 5.281-57.502 45.301-63.008 84.826z" fill="#ffffff" data-original="#000000" style=""/><path d="m359.63 394.858c-8.73-4.22-15.261 9.282-6.53 13.504 9.48 4.584 14.288 12.073 14.288 22.258 0 9.697 15 9.697 15 0 0-15.965-8.082-28.666-22.758-35.762z" fill="#ffffff" data-original="#000000" style=""/><path d="m256.258 161.848c3.42 8.867 17.481 3.643 13.996-5.396-4.412-11.442-10.657-21.402-17.587-28.045-6.999-6.712-17.381 4.116-10.381 10.827 5.296 5.077 10.389 13.32 13.972 22.614z" fill="#ffffff" data-original="#000000" style=""/></g></g></svg>
