<?xml version="1.0"?>
<svg xmlns="http://www.w3.org/2000/svg" xmlns:xlink="http://www.w3.org/1999/xlink" xmlns:svgjs="http://svgjs.com/svgjs" version="1.1" width="512" height="512" x="0" y="0" viewBox="0 0 512 512" style="enable-background:new 0 0 512 512" xml:space="preserve" class=""><g><g xmlns="http://www.w3.org/2000/svg"><g><path d="m256 0c-27.403 0-46.5 43.658-46.5 82.84 0 9.259 1.055 17.888 3.134 25.646 3.893 14.53 5.866 30.381 5.866 47.109v344.905c0 6.341 5.159 11.5 11.5 11.5h52c6.341 0 11.5-5.159 11.5-11.5v-52.423c0-4.143-3.357-7.5-7.5-7.5s-7.5 3.357-7.5 7.5v48.923h-45v-125.412h45v44.182c0 4.143 3.357 7.5 7.5 7.5s7.5-3.357 7.5-7.5v-260.174c0-16.729 1.974-32.579 5.866-47.108 2.079-7.76 3.134-16.389 3.134-25.647 0-39.183-19.097-82.841-46.5-82.841zm-22.5 356.588v-93.447c.67-7.08 4.128-19.279 8.888-19.279 4.148 0 8.06 11.692 8.929 19.729.404 3.854 3.658 6.719 7.45 6.719.261 0 .525-.014.791-.042 4.119-.432 7.108-4.121 6.677-8.241-.355-3.395-4.048-33.165-23.847-33.165-3.426 0-6.366.84-8.888 2.255v-75.521c0-13.841-1.263-27.162-3.763-39.748.029-.18.052-.362.069-.546.622-7.033 4.134-19.596 8.917-19.596 4.148 0 8.06 11.692 8.929 19.73.404 3.854 3.658 6.719 7.45 6.719.261 0 .525-.014.791-.042 4.119-.432 7.108-4.121 6.677-8.241-.355-3.395-4.048-33.166-23.847-33.166-6.141 0-10.72 2.699-14.128 6.567-.063-1.455-.094-2.933-.094-4.433-.001-33.603 15.896-67.84 31.499-67.84 7.585 0 15.24 8.092 21.104 20.27-19.754.737-22.808 29.932-23.094 33.298-.351 4.123 2.704 7.743 6.826 8.101 4.113.35 7.754-2.697 8.118-6.818.622-7.032 4.133-19.595 8.916-19.595 3.68 0 7.174 9.203 8.522 16.892.717 5.158 1.107 10.433 1.107 15.693 0 7.948-.883 15.271-2.622 21.766-4.232 15.795-6.378 32.951-6.378 50.99v7.5c-2.558-1.541-5.546-2.465-9.034-2.465-20.441 0-23.571 29.903-23.86 33.313-.351 4.122 2.704 7.743 6.825 8.101 4.122.351 7.756-2.696 8.119-6.818.622-7.033 4.134-19.596 8.916-19.596 4.148 0 8.06 11.692 8.929 19.73.025.235.06.466.105.694v99.351c-2.558-1.541-5.546-2.465-9.034-2.465-20.441 0-23.571 29.903-23.86 33.313-.351 4.122 2.704 7.743 6.825 8.101 4.122.352 7.756-2.696 8.119-6.818.622-7.033 4.134-19.596 8.916-19.596 4.148 0 8.06 11.692 8.929 19.73.025.235.06.466.105.694v28.224h-44.999z" fill="#fbfbfb" data-original="#000000" style="" class=""/><path d="m144 0c-27.403 0-46.5 43.658-46.5 82.84 0 9.259 1.055 17.888 3.134 25.646 3.893 14.53 5.866 30.381 5.866 47.109v132.02c0 4.143 3.357 7.5 7.5 7.5s7.5-3.357 7.5-7.5v-24.474c.67-7.08 4.128-19.279 8.888-19.279 4.148 0 8.06 11.692 8.929 19.729.404 3.854 3.658 6.719 7.45 6.719.261 0 .525-.014.791-.042 4.119-.432 7.108-4.121 6.677-8.241-.355-3.395-4.048-33.165-23.847-33.165-3.426 0-6.366.84-8.888 2.255v-75.521c0-13.841-1.263-27.162-3.763-39.747.029-.18.052-.362.068-.547.622-7.033 4.134-19.596 8.917-19.596 4.148 0 8.06 11.692 8.929 19.73.404 3.854 3.658 6.719 7.45 6.719.261 0 .525-.014.791-.042 4.119-.432 7.108-4.121 6.677-8.241-.355-3.395-4.048-33.166-23.847-33.166-6.141 0-10.72 2.699-14.128 6.567-.063-1.455-.094-2.933-.094-4.433 0-33.603 15.897-67.84 31.5-67.84 7.585 0 15.24 8.092 21.104 20.27-19.754.737-22.808 29.932-23.094 33.298-.351 4.123 2.704 7.743 6.826 8.101 4.12.35 7.754-2.697 8.118-6.818.622-7.032 4.133-19.595 8.916-19.595 3.68 0 7.174 9.203 8.522 16.892.717 5.158 1.107 10.433 1.107 15.693 0 7.948-.883 15.271-2.622 21.766-4.232 15.795-6.378 32.951-6.378 50.99v7.5c-2.558-1.541-5.546-2.465-9.034-2.465-20.441 0-23.571 29.903-23.86 33.313-.351 4.122 2.704 7.743 6.825 8.101 4.119.351 7.755-2.696 8.119-6.818.622-7.033 4.134-19.596 8.916-19.596 4.148 0 8.06 11.692 8.929 19.73.025.235.06.466.105.694v99.351c-2.558-1.541-5.546-2.465-9.034-2.465-20.441 0-23.571 29.903-23.86 33.313-.351 4.122 2.704 7.743 6.825 8.101 4.119.352 7.755-2.696 8.119-6.818.622-7.033 4.134-19.596 8.916-19.596 4.148 0 8.06 11.692 8.929 19.73.025.235.06.466.105.694v28.224h-45v-36.665c0-4.143-3.357-7.5-7.5-7.5s-7.5 3.357-7.5 7.5v180.575c0 6.341 5.159 11.5 11.5 11.5h52c6.341 0 11.5-5.159 11.5-11.5v-344.904c0-16.729 1.974-32.579 5.866-47.108 2.079-7.76 3.134-16.389 3.134-25.647.001-39.183-19.096-82.841-46.499-82.841zm-22.5 497v-125.412h45v125.412z" fill="#fbfbfb" data-original="#000000" style="" class=""/><path d="m368 0c-27.403 0-46.5 43.658-46.5 82.84 0 9.259 1.055 17.888 3.134 25.646 3.893 14.53 5.866 30.381 5.866 47.109v8.379c0 4.143 3.357 7.5 7.5 7.5s7.5-3.357 7.5-7.5v-8.379c0-13.841-1.263-27.162-3.763-39.748.029-.18.052-.362.069-.546.622-7.033 4.134-19.596 8.917-19.596 4.148 0 8.06 11.692 8.929 19.73.404 3.854 3.658 6.719 7.45 6.719.261 0 .525-.014.791-.042 4.119-.432 7.108-4.121 6.677-8.241-.355-3.395-4.048-33.166-23.847-33.166-6.141 0-10.72 2.699-14.128 6.567-.063-1.455-.094-2.933-.094-4.433-.001-33.602 15.896-67.839 31.499-67.839 7.585 0 15.24 8.092 21.104 20.27-19.754.737-22.808 29.932-23.094 33.298-.351 4.123 2.704 7.743 6.826 8.101 4.116.35 7.754-2.697 8.118-6.818.622-7.032 4.133-19.595 8.916-19.595 3.68 0 7.174 9.203 8.522 16.892.717 5.158 1.107 10.433 1.107 15.693 0 7.948-.883 15.271-2.622 21.766-4.232 15.795-6.378 32.951-6.378 50.99v7.5c-2.558-1.541-5.546-2.465-9.034-2.465-20.441 0-23.571 29.903-23.86 33.313-.351 4.122 2.704 7.743 6.825 8.101 4.125.351 7.756-2.696 8.119-6.818.622-7.033 4.134-19.596 8.916-19.596 4.148 0 8.06 11.692 8.929 19.73.025.235.06.466.105.694v99.351c-2.558-1.541-5.546-2.465-9.034-2.465-20.441 0-23.571 29.903-23.86 33.313-.351 4.122 2.704 7.743 6.825 8.101 4.125.352 7.756-2.696 8.119-6.818.622-7.033 4.134-19.596 8.916-19.596 4.148 0 8.06 11.692 8.929 19.73.025.235.06.466.105.694v28.224h-45v-93.447c.67-7.08 4.128-19.279 8.888-19.279 4.148 0 8.06 11.692 8.929 19.729.404 3.854 3.658 6.719 7.45 6.719.261 0 .525-.014.791-.042 4.119-.432 7.108-4.121 6.677-8.241-.355-3.395-4.048-33.165-23.847-33.165-3.426 0-6.366.84-8.888 2.255v-35.349c0-4.143-3.357-7.5-7.5-7.5s-7.5 3.357-7.5 7.5v304.73c0 6.341 5.159 11.5 11.5 11.5h52c6.341 0 11.5-5.159 11.5-11.5v-344.904c0-16.729 1.974-32.579 5.866-47.108 2.079-7.76 3.134-16.389 3.134-25.647.001-39.183-19.096-82.841-46.499-82.841zm-22.5 497v-125.412h45v125.412z" fill="#fbfbfb" data-original="#000000" style="" class=""/></g></g></g></svg>
