<?xml version="1.0"?>
<svg xmlns="http://www.w3.org/2000/svg" xmlns:xlink="http://www.w3.org/1999/xlink" xmlns:svgjs="http://svgjs.com/svgjs" version="1.1" width="512" height="512" x="0" y="0" viewBox="0 0 512.058 512.058" style="enable-background:new 0 0 512 512" xml:space="preserve"><g><g xmlns="http://www.w3.org/2000/svg"><path d="m512.058 350.288-134.114-63.258c-.576-7.012-1.328-14.326-2.302-21.87-1.392-10.784-3.148-21.288-5.245-31.496l87.302-87.3-160.572-57.772c-30.695-30.173-63.858-53.016-98.631-67.881-28.817-12.317-58.751-19.213-88.97-20.494-51.822-2.192-86.635 12.93-88.091 13.574l-5.297 2.346-2.345 5.297c-.646 1.456-15.772 36.268-13.575 88.091 1.281 30.22 8.176 60.153 20.494 88.971 14.864 34.773 37.708 67.936 67.88 98.631l57.772 160.572 87.3-87.302c10.208 2.097 20.711 3.854 31.495 5.245 7.545.973 14.858 1.726 21.87 2.301l63.258 134.115zm-150.236-150.475c-2.49-8.167-5.223-16.091-8.214-23.734-6.026-15.403-13.085-29.712-21.108-42.877l70.55 25.383zm-322.722-160.65c10.545-3.569 35.527-10.401 69.155-8.972 26.583 1.126 52.977 7.219 78.449 18.106.028.012.056.025.084.037-4.564 35.005-20.564 67.629-45.694 92.76-25.128 25.129-57.749 41.128-92.752 45.693-10.701-25.008-16.789-50.913-18.082-77.013-1.537-31.061 4.276-57.19 8.84-70.611zm119.485 363.887-25.383-70.55c13.165 8.022 27.474 15.082 42.878 21.108 7.644 2.991 15.568 5.724 23.734 8.214zm-46.379-124.685c-20.172-20.172-36.781-41.433-49.654-63.469 37.611-7.024 72.421-25.253 99.755-52.588 27.336-27.336 45.565-62.146 52.589-99.759 22.037 12.873 43.295 29.483 63.469 49.657 44.714 44.714 61.351 109.565 67.433 156.095 4.534 34.683 4.05 64.699 3.236 80.733-16.035.812-46.051 1.298-80.733-3.236-46.53-6.083-111.381-22.719-156.095-67.433zm215.186 101.232c22.101 0 36.294-1.512 37.312-1.624l11.954-1.315 1.315-11.954c.122-1.113 1.92-17.992 1.581-43.744l81.136 38.27-101.461 101.461-38.27-81.136c2.211.028 4.358.042 6.433.042z" fill="#fdfdfd" data-original="#000000" style=""/><path d="m70.924 70.924h30v30h-30z" transform="matrix(.707 -.707 .707 .707 -35.591 85.926)" fill="#fdfdfd" data-original="#000000" style=""/><path d="m183.521 183.521c-17.206 17.205-36.99 31.358-58.804 42.067l13.221 26.93c24.78-12.165 47.254-28.242 66.796-47.784s35.621-42.018 47.787-66.8l-26.93-13.221c-10.711 21.817-24.865 41.602-42.07 58.808z" fill="#fdfdfd" data-original="#000000" style=""/></g></g></svg>
