	<svg xmlns="http://www.w3.org/2000/svg" id="icon-help" viewBox="0 0 30 30">
    <g id="svgs" stroke="none" stroke-width="1">
        <g id="BTN/Navigation/Icon-help">
            <g id="Question">
                <g id="Layer_1">
                    <path d="M15,0 C11.1145455,0 7.46227273,1.51318182 4.715,4.26090909 C1.96727273,7.00818182 0.454090909,10.6604545 0.454090909,14.5454545 C0.454090909,18.4304545 1.96727273,22.0827273 4.715,24.83 C7.46227273,27.5777273 11.1145455,29.0909091 15,29.0909091 C18.885,29.0909091 22.5377273,27.5777273 25.285,24.83 C28.0327273,22.0827273 29.5459091,18.4304545 29.5459091,14.5454545 C29.5459091,10.6604545 28.0327273,7.00818182 25.285,4.26090909 C22.5377273,1.51318182 18.885,0 15,0 Z M24.6422727,24.1872727 C22.0668182,26.7631818 18.6422727,28.1818182 15,28.1818182 C11.3572727,28.1818182 7.93318182,26.7631818 5.35772727,24.1872727 C2.78181818,21.6118182 1.36318182,18.1877273 1.36318182,14.5454545 C1.36318182,10.9031818 2.78181818,7.47909091 5.35772727,4.90363636 C7.93318182,2.32772727 11.3572727,0.909090909 15,0.909090909 C18.6422727,0.909090909 22.0668182,2.32772727 24.6422727,4.90363636 C27.2181818,7.47909091 28.6368182,10.9031818 28.6368182,14.5454545 C28.6368182,18.1877273 27.2181818,21.6118182 24.6422727,24.1872727 Z" id="Shape"/>
                    <polygon id="Shape" points="13.6363636 19.5454545 14.5454545 19.5454545 14.5454545 21.3636364 13.6363636 21.3636364"/>
                    <path d="M15,6.81818182 C12.2854545,6.81818182 10.9090909,7.73590909 10.9090909,9.54545455 L11.8181818,9.54545455 C11.8181818,8.69909091 12.18,7.72727273 15,7.72727273 C16.9327273,7.72727273 18.1818182,8.79772727 18.1818182,10.4545455 C18.1818182,11.7113636 16.3940909,12.8840909 15.7059091,13.2295455 C15.6213636,13.2718182 13.6363636,14.2986364 13.6363636,17.2727273 L13.6363636,17.7272727 L14.5454545,17.7272727 L14.5454545,17.2727273 C14.5454545,14.8822727 16.0509091,14.0745455 16.1122727,14.0431818 C16.2340909,13.9822727 19.0909091,12.5295455 19.0909091,10.4545455 C19.0909091,8.31363636 17.4086364,6.81818182 15,6.81818182 Z" id="Shape"/>
                </g>
            </g>
        </g>
    </g>
</svg>
