<svg xmlns="http://www.w3.org/2000/svg" id="Logo" viewBox="0 0 140 74">
	<g>
		<g id="Logo" transform="translate(-53.000000, -34.000000)">
			<g id="Logo_x2F_Shape-Light" transform="translate(41.000000, 34.000000)">
				<g id="Group-2" transform="translate(12.000000, 0.000000)">
					<g id="Page-1">
						<path id="Fill-1" d="M60,34.6V43c0,0.6-0.3,1.1-0.6,1.7c-0.6,0.6-1.1,1.1-2,1.1c-1.1,0-2-0.6-2.5-1.4c-0.6-0.6-0.8-1.4-0.8-2.2
						c0-3.1,0-7.6,0.3-13.4s0.3-10.4,0.3-13.4c0-0.8,0.3-1.4,0.8-2c0.6-0.6,1.1-0.8,2-0.8s1.4,0.3,2,0.8c0.6,0.6,0.8,1.1,0.8,2
						c0,1.1,0,2.8-0.3,4.8c-0.3,2.2-0.3,3.9-0.3,4.8c0.8-0.8,4.5-4.5,10.4-11.2c0.6-0.6,1.4-1.1,2.2-1.1c0.8,0,1.4,0.3,2,0.8
						c0.6,0.6,0.8,1.1,0.8,2s-1.7,3.1-4.8,6.4c-2.2,2.5-4.8,5-7.6,7.6c1.4,1.4,2.8,2.8,4.5,4.2c1.7,1.7,3.4,2.8,4.5,3.9
						c0.6,0.6,1.4,0.8,2.2,1.1c1.4,0.6,2.2,1.4,2.2,2.5c0,0.6-0.3,1.1-0.6,1.7c-0.6,0.8-1.1,1.1-2,1.1c-2,0-4.5-1.1-7.6-3.6
						C65.6,39.9,63.3,37.9,60,34.6" />
						<path id="Fill-3" d="M88.8,27.6c-1.1,0-2.2,0.3-3.1,1.1c-0.8,0.8-1.7,2-2.2,3.6c1.4-0.6,3.1-1.4,4.5-2c1.7-0.8,3.4-1.7,4.2-2.2
						C91.3,27.6,90.2,27.6,88.8,27.6 M89.4,44.4c-3.1,0-5.9-0.8-7.8-2.2c-2.2-1.7-3.4-3.9-3.4-7c0-3.4,0.8-6.2,2.8-8.7
						s4.8-3.9,8.1-3.9c2.2,0,4.2,0.3,5.9,1.1c2,1.1,3.1,2.5,3.1,4.5c0,1.4-0.8,2.8-2.5,3.9c-0.8,0.6-2.2,1.4-4.5,2.2l-6.7,3.1
						c0.6,0.6,1.4,1.1,2.2,1.7c0.8,0.3,2,0.6,3.1,0.6c1.7,0,3.4-0.3,4.5-1.1c1.1-0.6,2-1.1,2.8-1.1c1.4,0,2,0.6,2,2
						s-1.1,2.8-3.4,3.6C93.6,44.1,91.6,44.4,89.4,44.4" />
						<path id="Fill-5" d="M116.2,27.3h-1.1H114c-0.6,0-1.1,0-2,0.3c0.3,5.3,0.3,9,0.3,10.6V39v1.1c0,3.1-0.8,4.5-2.8,4.5
						c-0.8,0-1.4-0.3-2-0.6c-0.6-0.6-0.8-1.1-0.8-1.7v-2.2v-2.2c0-1.7,0-5-0.3-10.4c-0.8,0-2-0.3-3.6-0.3c-1.7-0.3-2.5-1.1-2.5-2.5
						c0-0.8,0.3-1.4,0.8-2c0.6-0.6,1.1-0.8,2-0.8c0.6,0,1.7,0,3.4,0.3V20v-2c0-0.8,0.3-1.4,0.8-2c0.6-0.6,1.1-0.8,2-0.8
						c2,0,3.1,1.7,3.1,5V22c0.8,0,1.4-0.3,2-0.3c1.4,0,2.5,0,3.1,0.3c1.1,0.3,1.7,1.1,1.7,2.5c0,0.8-0.3,1.4-0.8,2
						C117.9,27,117.1,27.3,116.2,27.3" />
						<path id="Fill-7" d="M131.1,28.1c-1.7,0-2.8,0.8-3.9,2.2c-0.8,1.4-1.1,2.8-1.1,4.5s0.6,2.8,1.4,3.6c0.8,0.6,1.7,1.1,2.5,1.1
						c1.1,0,2.2-0.3,3.1-1.1c0.8-0.8,1.4-2.2,1.7-3.6C134.4,30.1,133.3,28.1,131.1,28.1 M129.7,44.6c-2.5,0-4.5-0.8-6.4-2.5
						c-2-2-3.1-4.2-3.1-7.6c0-3.1,0.8-5.6,2.5-7.8c2-2.8,4.8-4.2,8.4-4.2c2.8,0,4.8,1.1,6.4,3.1c1.4,2,2.2,4.2,2.2,7.3
						c0,3.1-0.8,5.9-2.5,7.8C135.3,43.5,133,44.6,129.7,44.6" />
						<path id="Fill-9"
							d="M64.7,56.4c-0.8-0.6-3.1-1.7-6.2-2.8v14.8c0.3,0.3,0.8,0.6,1.4,0.6c0.6,0,1.1,0.3,1.7,0.3
						c2.2,0,3.6-0.3,4.8-0.8c0.8-0.6,1.7-1.4,2.2-2.2c0.6-1.1,0.8-2,0.8-3.1C69.2,60.3,67.8,58.4,64.7,56.4 M56.3,71.8
						c-0.6,0-1.1-0.3-1.4-0.6c-0.3-0.3-0.6-0.8-0.6-1.4c0-1.1,0-2.5,0.3-4.5c0-2,0.3-3.6,0.3-4.5v-5v-5c0-0.6,0.3-1.1,0.8-1.7
						c0.6-0.6,1.1-0.8,1.7-0.8c0.3,0,1.1,0.3,2.5,0.8c1.7,0.8,2.5,1.1,2.8,1.1c2.8,0.8,5.3,2.5,7.6,4.5c2.5,2.2,3.6,5,3.6,7.8
						c0,1.7-0.6,3.4-1.4,5c-0.8,1.7-2,2.8-3.6,3.9c-1.7,1.1-3.9,1.7-7,1.7c-0.8,0-1.7,0-2.5-0.3C58,72.6,57.2,72.4,56.3,71.8" />
						<path id="Fill-11" d="M79.3,53.6c-0.6,0-1.1-0.3-1.7-0.6c-0.6-0.6-0.8-0.8-0.8-1.7s0.3-1.1,0.8-1.7c0.6-0.6,1.1-0.6,1.7-0.6
						c0.6,0,1.1,0.3,1.7,0.6c0.6,0.6,0.6,0.8,0.6,1.7S81.2,52.5,81,53C80.4,53.3,79.8,53.6,79.3,53.6 M80.7,64.8v2.8v2.8
						c0,0.6-0.3,1.1-0.6,1.4c-0.3,0.3-0.8,0.6-1.4,0.6s-1.1-0.3-1.4-0.6c-0.3-0.3-0.6-0.8-0.6-1.4v-2.8v-2.8c0-0.8,0-2,0.3-3.4
						c0-1.4,0.3-2.5,0.3-3.4c0-0.6,0.3-1.1,0.6-1.4c0.3-0.3,0.8-0.6,1.4-0.6c0.6,0,1.1,0.3,1.4,0.6c0.3,0.3,0.6,0.8,0.6,1.4
						c0,0.8,0,2-0.3,3.4C80.7,62.6,80.7,63.7,80.7,64.8" />
						<path id="Fill-13" d="M91.6,59.8c-0.8,0-1.7,0.3-2.5,0.8c-0.6,0.6-1.1,1.7-1.7,2.8c1.1-0.6,2.2-0.8,3.4-1.4
						c1.4-0.6,2.5-1.1,3.4-1.7C93.6,59.8,92.7,59.8,91.6,59.8 M92.2,72.4c-2.5,0-4.5-0.6-5.9-1.7c-1.7-1.4-2.5-3.1-2.5-5.3
						c0-2.5,0.6-4.8,2-6.4c1.4-2,3.4-2.8,5.9-2.8c1.7,0,3.1,0.3,4.5,0.8c1.4,0.8,2.2,2,2.2,3.4c0,1.1-0.6,2-2,2.8
						c-0.6,0.3-1.7,0.8-3.4,1.7L88,67c0.6,0.6,1.1,0.8,1.7,1.1c0.6,0.3,1.4,0.3,2.2,0.3c1.4,0,2.5-0.3,3.4-0.8
						c0.8-0.6,1.4-0.8,2-0.8c1.1,0,1.7,0.6,1.7,1.4c0,1.1-0.8,2-2.5,2.8C95.2,72.1,93.6,72.4,92.2,72.4" />
						<path id="Fill-15" d="M112.3,59.8h-0.8h-0.8h-1.4c0.3,3.9,0.3,6.7,0.3,7.8v0.8v0.8c0,2.2-0.8,3.4-2.2,3.4
						c-0.6,0-1.1-0.3-1.4-0.6c-0.6-0.3-0.6-0.8-0.6-1.4V69v-1.7c0-1.1,0-3.9-0.3-7.8c-0.6,0-1.7,0-2.8-0.3c-1.1,0-2-0.8-2-2
						c0-0.6,0.3-1.1,0.6-1.4c0.3-0.3,0.8-0.6,1.4-0.6c0.3,0,1.1,0,2.5,0.3v-1.7v-1.4c0-0.6,0.3-1.1,0.6-1.4c0.3-0.3,0.8-0.6,1.4-0.6
						c1.4,0,2.2,1.1,2.2,3.6v1.1h1.4c1.1,0,2,0,2.2,0.3c0.8,0.3,1.1,0.8,1.1,2c0,0.6-0.3,1.1-0.6,1.4
						C113.4,59.5,112.9,59.8,112.3,59.8" />
						<path id="Fill-17" d="M18.6,45c-0.5,0.6-1.3,1-2,0.7c-0.2-0.1-0.5-0.5-0.6-0.8c-0.1-0.3,0-0.5,0.2-1c2.4-3.6,6.4-5.3,9.9-3.8
						c0.4,0.2,0.8,0.3,1.1,0.7C24.1,40.4,20.7,42.1,18.6,45 M27,37.8C22,35.7,15.6,39,13,45.3c-2.6,6.3-0.4,13.1,4.7,15.2
						c5.1,2.1,11.4-1.2,14-7.5S32.3,40,27,37.8" />
						<path id="Fill-19" d="M57.9,5.6c-2.2,3.1-4.7,5-7.7,5.8c-2.4,0.4-5,0.4-7.6-0.7c-0.6-0.3-1.1-0.6-1.7-0.9
						c0.2-0.3,0.6-0.4,1-0.5c1-0.5,2.3-0.9,3.6-1.2c1.3-0.4,2.6-0.7,3.9-1.1c0-0.7,0.7-0.7,0.9-0.9c-0.3-0.2-1-0.2-1.7-0.2
						c0,0,0.2-0.3,0.3-0.5c0.2-0.3,0.3-0.6,0.6-0.4l0.2-0.3c0,0-0.6,0.4-1,0.5c-0.2,0.3-0.6,0.4-0.6,0.4L48,5.7
						c-0.7,0-1.3,0.4-2,0.3c0.2-0.3,0.3-0.5,0.9-0.9c0.3-0.6,0.7-0.7,0.9-0.9c-0.4,0.1-0.7,0.7-1.2,0.8c-0.6,0.4-0.7,0.7-0.9,0.9
						c-0.2,0.3-0.2,0.3-0.3,0.6l-0.4,0.1c-0.9,0.2-1.3,0.4-2.2,0.6c0.2-0.3,0.7-0.7,0.9-0.9c-0.6,0.4-0.9,0.9-1.3,1.1
						C42.2,7.5,42,7.8,42,7.8l-0.4,0.1c-0.2,0.3-0.4,0.1-0.6,0.4c1.8-2.6,4.4-4.4,7.2-5c2.6-0.7,5-0.4,7.4,0.5
						c0.6,0.3,1.4,0.8,2.2,1.3l0.3,0.2L57.9,5.6z M42.4,28.5c-2.6,6.3-3.2,12.5-2,18.9c0.9,3.5,0.5,7.5-1,11.1
						c-1.7,4.6-5.2,8.2-9.8,10.1c-2.4,1-4.9,1.6-7.6,1.6c-2.5,0-4.9-0.5-7.2-1.4c-4.7-1.9-8.4-5.6-10.3-10.3c-2-4.7-2-9.9,0-14.6
						c1.4-3.5,3.8-6.4,7.1-8.6c5.4-3.6,9.6-8.7,12.1-14.8c1.5-3.8,5.4-6.3,9.6-6.3c1.3,0,2.6,0.2,3.8,0.7
						C42.2,17.1,44.6,23.2,42.4,28.5L42.4,28.5z M58.8,3.9c-1.1-0.6-2.2-1.3-3.6-2c-2.6-1.1-5.7-1.5-8.5-0.5c-3,0.8-5.8,2.5-7.7,5.1
						l-0.3,0.6l-0.1-0.4c-0.9-2.3-1.5-4.5-2.6-6.2c-0.3-0.2-0.3-0.2-0.6-0.3s-0.7,0-0.7,0c-0.4,0.1-0.5,0.8-0.4,1.3
						c2.1,3.7,2.7,6.5,2.8,10.5c-1.2-0.4-2.4-0.6-3.6-0.6c-5.2,0-9.8,3.3-12,8.5c-2.2,5.2-6.2,9.9-11.4,13.1
						c-2.8,1.9-6.5,5.1-8.5,10c-2.3,5.5-2.3,11.5,0,17c2.2,5.5,6.5,9.7,11.9,12c2.7,1.1,5.6,1.7,8.5,1.7C31,73.5,39,68,42.4,59.6
						c1.6-3.9,2-8.4,1.1-12.8c-1.2-6.1-0.7-12.2,1.5-17.5c1.4-3.4,1.5-7,0.3-10.2c-1.1-2.8-3.1-4.9-5.7-6.4c0.1-0.1,0.1-0.3,0-0.8
						l-0.1-0.4l0.3,0.2c0.6,0.3,0.8,0.5,1.4,0.8c2.6,1.1,5.7,1.4,8.5,0.5c4.2-0.9,7.3-3.9,9.5-7.7C59.4,4.9,59.4,4.2,58.8,3.9
						L58.8,3.9z" />
						<path id="Fill-21" d="M43.7,6.2c0.6-0.4,0.9-0.9,1.3-1.1C44.6,5.3,44,5.7,43.7,6.2" />
						<path id="Fill-23" d="M45.6,4.8c0,0-0.4,0.1-0.6,0.4C45.4,5,45.6,4.8,45.6,4.8" />
					</g>
				</g>
			</g>
		</g>
	</g>
</svg>
