<?xml version="1.0"?>
<svg xmlns="http://www.w3.org/2000/svg" xmlns:xlink="http://www.w3.org/1999/xlink" xmlns:svgjs="http://svgjs.com/svgjs" version="1.1" width="512" height="512" x="0" y="0" viewBox="0 0 512 512" style="enable-background:new 0 0 512 512" xml:space="preserve"><g>
<g xmlns="http://www.w3.org/2000/svg">
	<g>
		<path d="M474.504,35.774c-23.76-23.76-61.515-36.765-103.57-35.715c-38.318,0.967-74.09,13.535-93.356,32.801    c-22.78,22.779-20.672,52.087,5.639,78.398c12.255,12.255,32.199,12.257,44.458,0c2.876-2.876,8.737-2.668,16.176,0.266    c-2.958,1.995-6.009,4.03-9.126,6.111c-35.183,23.473-75.061,50.077-78.23,82.138c-0.599,6.056,0.126,11.984,2.16,17.752    c2.564,7.27,7.206,14.286,13.906,20.985c3.913,3.913,10.254,3.912,14.169,0c1.949-1.949,2.926-4.501,2.934-7.055    c0.008-2.575-0.971-5.151-2.934-7.116c-4.495-4.494-7.511-8.892-9.09-13.28c-1.114-3.1-1.512-6.195-1.203-9.314    c2.237-22.627,39.486-47.477,69.417-67.444c7.143-4.766,13.889-9.267,20.156-13.696c1.403-0.99,2.775-1.975,4.111-2.949    c4.47-3.259,5.452-9.526,2.193-13.997c-1.918-2.633-4.881-4.055-7.905-4.114c-21.182-12.832-39.572-13.782-50.901-2.453    c-4.447,4.446-11.68,4.444-16.124,0c-18.48-18.48-20.378-35.324-5.638-50.062c15.536-15.536,46.817-26.11,79.695-26.94    c36.583-0.914,68.999,9.958,88.895,29.855c19.896,19.895,30.777,52.296,29.854,88.895c-0.829,32.876-11.404,64.158-26.94,79.695    c-14.738,14.74-31.582,12.842-50.061-5.637c-2.137-2.138-3.314-5.001-3.314-8.064c0-3.061,1.177-5.924,3.314-8.06    c11.907-11.907,10.245-31.664-4.553-54.232c-0.568-0.91-1.292-1.742-2.167-2.455l-0.001-0.001    c-0.003-0.002-0.005-0.004-0.007-0.006c-0.138-0.111-0.278-0.219-0.421-0.324c-2.011-1.468-4.386-2.08-6.709-1.893    c-0.39,0.031-0.774,0.085-1.155,0.161c-2.304,0.459-4.458,1.725-5.997,3.737c-1.097,1.434-1.361,1.794-2.385,3.188l-0.158,0.214    c-5.305,7.208-10.602,14.95-16.211,23.146c-13.537,19.781-27.535,40.235-41.876,53.315c-4.088,3.728-4.38,10.064-0.651,14.153    c3.727,4.088,10.065,4.382,14.152,0.651c3.47-3.165,6.875-6.646,10.224-10.369c0.137-0.136,0.27-0.276,0.4-0.423    c12.07-13.504,23.381-30.042,34.32-46.036c3.03-4.431,5.981-8.745,8.87-12.881c2.82,7.301,2.986,13.057,0.158,15.886    c-5.922,5.921-9.182,13.815-9.182,22.228s3.261,16.308,9.182,22.23c14.193,14.192,29.257,21.341,43.698,21.341    c12.331,0,24.208-5.212,34.698-15.704c19.266-19.266,31.835-55.038,32.802-93.356C511.281,97.283,498.263,59.534,474.504,35.774z" fill="#f9f9f9" data-original="#000000" style=""/>
	</g>
</g>
<g xmlns="http://www.w3.org/2000/svg">
	<g>
		<path d="M324.467,241.231c-1.232-5.389-6.633-8.75-12.035-7.526c-0.006,0.002-0.101,0.023-0.107,0.024    c-5.389,1.237-8.712,6.597-7.48,11.987c1.062,4.641,5.219,7.779,9.796,7.779c0.738,0,1.489-0.082,2.239-0.252    c0.006-0.002,0.102-0.023,0.107-0.025C322.376,251.981,325.699,246.622,324.467,241.231z" fill="#f9f9f9" data-original="#000000" style=""/>
	</g>
</g>
<g xmlns="http://www.w3.org/2000/svg">
	<g>
		<path d="M446.169,64.108c-17.718-17.716-44.343-22.357-58.636-23.548c-5.342-0.444-10.831-0.587-16.322-0.426    c-5.53,0.164-9.88,4.781-9.716,10.312c0.164,5.531,4.75,9.868,10.312,9.716c4.74-0.142,9.47-0.019,14.063,0.365    c11.563,0.963,32.931,4.548,46.132,17.749c1.956,1.958,4.519,2.935,7.084,2.935c2.565,0,5.128-0.979,7.084-2.934    C450.081,74.364,450.081,68.021,446.169,64.108z" fill="#f9f9f9" data-original="#000000" style=""/>
	</g>
</g>
<g xmlns="http://www.w3.org/2000/svg">
	<g>
		<path d="M354.279,51.28c-1.318-5.373-6.743-8.66-12.117-7.34l-0.656,0.159c-5.371,1.324-8.653,6.753-7.328,12.125    c1.126,4.566,5.217,7.621,9.718,7.621c0.793,0,1.601-0.095,2.405-0.294l0.636-0.153C352.311,62.08,355.598,56.654,354.279,51.28z" fill="#f9f9f9" data-original="#000000" style=""/>
	</g>
</g>
<g xmlns="http://www.w3.org/2000/svg">
	<g>
		<path d="M199.694,492.221c-5.321-1.336-10.739,1.855-12.135,7.174c-1.404,5.352,1.797,10.828,7.149,12.232    c0.16,0.042,0.32,0.08,0.48,0.117c0.753,0.172,1.505,0.255,2.246,0.255c4.555,0,8.66-3.14,9.73-7.772    C208.403,498.859,205.048,493.495,199.694,492.221z" fill="#f9f9f9" data-original="#000000" style=""/>
	</g>
</g>
<g xmlns="http://www.w3.org/2000/svg">
	<g>
		<path d="M255.498,458.255c-3.167-32.059-43.045-58.664-78.228-82.136c-3.143-2.097-6.213-4.146-9.194-6.156    c3.751-1.453,7.255-2.265,10.332-2.265c3.467,0,5.034,1.167,5.912,2.045c5.921,5.921,13.816,9.182,22.229,9.182    s16.308-3.261,22.229-9.182c25.138-25.138,23.652-46.741,17.978-60.439c-6.363-15.363-21.172-28.406-42.824-37.718    c-19.642-8.449-43.65-13.102-67.599-13.102c-40.669,0-75.772,12.706-98.842,35.775c-24.549,24.55-32.505,57.308-34.854,80.466    c-2.931,28.889,1.251,59.615,11.476,84.3c12.611,30.446,32.795,47.907,55.377,47.907c14.663,0,29.294-7.197,43.485-21.389    c5.921-5.921,9.181-13.815,9.181-22.228s-3.261-16.307-9.181-22.229c-3.642-3.642-1.682-11.072,0.165-15.886    c2.896,4.143,5.851,8.459,8.889,12.897c14.186,20.727,28.853,42.162,44.917,56.811c1.921,1.752,4.338,2.616,6.747,2.616    c2.719,0,5.429-1.101,7.405-3.268c3.729-4.088,3.437-10.424-0.651-14.153c-14.345-13.083-28.345-33.539-41.883-53.323    c-4.953-7.238-9.695-14.165-14.381-20.636c6.967-9.248,15.838-18.08,24.827-24.946c5.398,3.749,11.145,7.585,17.139,11.584    c29.928,19.967,67.174,44.815,69.41,67.44c0.745,7.534-2.623,14.925-10.295,22.597c-3.912,3.912-3.912,10.255,0,14.169    c1.957,1.957,4.52,2.934,7.084,2.934s5.128-0.979,7.084-2.934C251.446,484.976,256.851,471.944,255.498,458.255z M95.108,416.331    c-8.977,21.673-1.535,33.691,3.7,38.925c4.445,4.444,4.445,11.676,0,16.121c-10.298,10.298-20.161,15.52-29.318,15.52    c-14.073,0-27.511-12.954-36.865-35.54C14.787,408.294,17.03,343.058,51.66,308.427c19.006-19.007,49.868-29.908,84.674-29.908    c43.319,0,82.833,16.531,91.912,38.452c4.853,11.714,0.266,24.702-13.635,38.602c-2.136,2.137-4.999,3.313-8.061,3.313    c-3.063,0-5.926-1.176-8.062-3.313c-5.177-5.176-12.12-7.912-20.08-7.912C148.865,347.662,107.912,385.421,95.108,416.331z" fill="#f9f9f9" data-original="#000000" style=""/>
	</g>
</g>
<g xmlns="http://www.w3.org/2000/svg">
	<g>
		<path d="M140.786,298.62c-5.491-0.162-10.982-0.019-16.321,0.426c-14.295,1.19-40.92,5.832-58.637,23.548    c-3.912,3.912-3.913,10.254-0.001,14.169c1.957,1.956,4.52,2.934,7.084,2.934c2.564,0,5.127-0.979,7.084-2.934    c13.201-13.201,34.569-16.786,46.132-17.749c4.593-0.384,9.327-0.507,14.063-0.365c5.534,0.165,10.147-4.188,10.312-9.716    C150.665,303.401,146.316,298.784,140.786,298.62z" fill="#f9f9f9" data-original="#000000" style=""/>
	</g>
</g>
<g xmlns="http://www.w3.org/2000/svg">
	<g>
		<path d="M170.484,302.582l-0.65-0.157c-5.376-1.316-10.798,1.969-12.118,7.341c-1.318,5.373,1.968,10.798,7.341,12.118l0.64,0.155    c0.804,0.197,1.609,0.292,2.401,0.292c4.503,0,8.596-3.059,9.721-7.627C179.141,309.332,175.857,303.904,170.484,302.582z" fill="#f9f9f9" data-original="#000000" style=""/>
	</g>
</g>
<g xmlns="http://www.w3.org/2000/svg">
</g>
<g xmlns="http://www.w3.org/2000/svg">
</g>
<g xmlns="http://www.w3.org/2000/svg">
</g>
<g xmlns="http://www.w3.org/2000/svg">
</g>
<g xmlns="http://www.w3.org/2000/svg">
</g>
<g xmlns="http://www.w3.org/2000/svg">
</g>
<g xmlns="http://www.w3.org/2000/svg">
</g>
<g xmlns="http://www.w3.org/2000/svg">
</g>
<g xmlns="http://www.w3.org/2000/svg">
</g>
<g xmlns="http://www.w3.org/2000/svg">
</g>
<g xmlns="http://www.w3.org/2000/svg">
</g>
<g xmlns="http://www.w3.org/2000/svg">
</g>
<g xmlns="http://www.w3.org/2000/svg">
</g>
<g xmlns="http://www.w3.org/2000/svg">
</g>
<g xmlns="http://www.w3.org/2000/svg">
</g>
</g></svg>
