<?xml version="1.0"?>
<svg xmlns="http://www.w3.org/2000/svg" xmlns:xlink="http://www.w3.org/1999/xlink" xmlns:svgjs="http://svgjs.com/svgjs" version="1.1" width="512" height="512" x="0" y="0" viewBox="0 0 64 64" style="enable-background:new 0 0 512 512" xml:space="preserve"><g><g xmlns="http://www.w3.org/2000/svg" id="_26-No_meat" data-name="26-No meat"><path d="M15.452,45.858C11.472,43.272,9,37.9,9,31.84,9,17.922,15.864,15,21.622,15H39v2H21.622C14.574,17,11,21.993,11,31.84c0,5.309,2.175,10.153,5.542,12.341Z" fill="#ffffff" data-original="#000000" style=""/><path d="M24.26,47.1l-.519-1.932c2.416-.648,5.656-2.1,7.376-5.338,2.133-4.014,13.038-4.13,14.274-4.13C48.064,35.7,53,32.253,53,27.34A10.706,10.706,0,0,0,48.449,18.4l1.1-1.67A12.722,12.722,0,0,1,55,27.34c0,6.01-5.74,10.36-9.609,10.36-4.206,0-11.321.836-12.508,3.07C30.826,44.64,27.059,46.348,24.26,47.1Z" fill="#ffffff" data-original="#000000" style=""/><path d="M22.454,53a14.38,14.38,0,0,1-2.5-.221A12.261,12.261,0,0,1,15.47,51.1l1.059-1.7a10.3,10.3,0,0,0,3.758,1.4,12.492,12.492,0,0,0,2.148.2s9.022-.932,12.537-6.72a4.875,4.875,0,0,1,.967-1.134c1.535-1.344,4.07-2.033,7.535-2.046,1.137-.01,1.928,0,1.928,0a6.872,6.872,0,0,0,3.221-1.011A8.355,8.355,0,0,0,53,33.1V27.34h2V33.1a10.356,10.356,0,0,1-5.378,8.721A8.762,8.762,0,0,1,45.391,43.1c-.015,0-.79-.008-1.905,0-2.931.011-5.084.547-6.228,1.55a2.906,2.906,0,0,0-.577.669C32.64,51.972,22.939,52.957,22.528,53Z" fill="#ffffff" data-original="#000000" style=""/><path d="M12.653,48.646A17.037,17.037,0,0,1,9,37.6V31.84h2V37.6a15.044,15.044,0,0,0,3.181,9.755Z" fill="#ffffff" data-original="#000000" style=""/><path d="M22,29a4,4,0,1,1,4-4A4,4,0,0,1,22,29Zm0-6a2,2,0,1,0,2,2A2,2,0,0,0,22,23Z" fill="#ffffff" data-original="#000000" style=""/><path d="M32,64a31.965,31.965,0,0,1-21.115-7.966,32.306,32.306,0,0,1-2.92-2.919A31.966,31.966,0,0,1,0,32H2A29.967,29.967,0,0,0,9.467,51.8a30.354,30.354,0,0,0,2.738,2.737A29.99,29.99,0,1,0,2.562,26.191L.6,25.807A32,32,0,1,1,32,64Zm0-4a27.986,27.986,0,0,1-18.273-6.8,1,1,0,0,1-.054-1.464L51.742,13.673a.963.963,0,0,1,.743-.292,1,1,0,0,1,.721.346A27.992,27.992,0,0,1,32,60ZM15.864,52.378A25.992,25.992,0,0,0,52.379,15.864ZM11.551,50.62h-.036a1,1,0,0,1-.721-.346A27.992,27.992,0,0,1,50.273,10.8a1,1,0,0,1,.054,1.464L12.258,50.327A1,1,0,0,1,11.551,50.62ZM32,6A25.993,25.993,0,0,0,11.621,48.136L48.136,11.622A25.989,25.989,0,0,0,32,6ZM2.062,30.063l-2-.126c.045-.7.112-1.39.2-2.065l1.984.256Q2.124,29.088,2.062,30.063Z" fill="#ffffff" data-original="#000000" style=""/><path d="M17.942,42.891C12.579,40.153,12,33.312,12,30.5,12,20.169,18,18,23.042,18H39v2H23.042C16.958,20,14,23.435,14,30.5c0,2.445.473,8.375,4.852,10.61Z" fill="#ffffff" data-original="#000000" style=""/><path d="M36.2,35.824,35.8,33.863a43.625,43.625,0,0,1,7.6-.756c2.546,0,6.6-2.69,6.6-5.878a7.1,7.1,0,0,0-3.52-6.054l1.041-1.709A9.086,9.086,0,0,1,52,27.229c0,4.5-5.217,7.878-8.6,7.878A42.345,42.345,0,0,0,36.2,35.824Z" fill="#ffffff" data-original="#000000" style=""/></g></g></svg>
