<?xml version="1.0"?>
<svg xmlns="http://www.w3.org/2000/svg" xmlns:xlink="http://www.w3.org/1999/xlink" xmlns:svgjs="http://svgjs.com/svgjs" version="1.1" width="512" height="512" x="0" y="0" viewBox="0 0 64 64" style="enable-background:new 0 0 512 512" xml:space="preserve" class=""><g><linearGradient xmlns="http://www.w3.org/2000/svg" id="SVGID_1_" gradientUnits="userSpaceOnUse" x1="0" x2="64" y1="32" y2="32"><stop stop-opacity="1" stop-color="#83bb26" offset="0.042"/><stop stop-opacity="1" stop-color="#35a233" offset="0.4"/><stop stop-opacity="1" stop-color="#83bb26" offset="0.8"/><stop stop-opacity="1" stop-color="#35a233" offset="1"/></linearGradient><path xmlns="http://www.w3.org/2000/svg" d="m51.004 62.411c-2.26 0-4.389-.58-6.24-1.601-14.567.044-29.181.022-43.764.022-.553 0-1-.449-1-1 0-13.342 9.059-24.798 22.028-27.86.339-.08.692.021.938.266l6.387 6.389 6.092-6.092c.257-.258.63-.354.979-.256 3.588 1.014 6.9 2.703 9.859 5.028 1.465-.573 3.058-.889 4.723-.889 7.164.002 12.994 5.83 12.994 12.996s-5.83 12.997-12.996 12.997zm-8.75-19.646c-1.408 1.848-2.245 4.152-2.245 6.65 0 6.063 4.933 10.994 10.995 10.994 6.062.002 10.996-4.931 10.996-10.994s-4.935-10.994-10.996-10.994c-1.396 0-2.736.262-3.969.74-1.719.859-3.633 2.195-4.781 3.604zm-40.235 16.068h39.659c-2.434-2.408-3.826-5.686-3.826-9.201 0-3.045 1.053-5.907 2.883-8.17.977-1.259 2.18-2.332 3.547-3.164-2.396-1.75-5.025-3.066-7.842-3.93l-6.379 6.381c-.438.431-.898.41-1.414 0l-6.695-6.697c-11.454 2.953-19.501 12.988-19.933 24.781zm46.436-4.879-3.979-3.979c-.393-.392-.393-1.024 0-1.414.391-.392 1.021-.392 1.414 0l3.271 3.272 6.957-6.957c.391-.392 1.022-.392 1.414 0 .391.392.391 1.022 0 1.414l-7.664 7.664c-.485.414-1.036.334-1.413 0zm-19.821-25.109c-7.515 0-13.63-6.113-13.63-13.629s6.115-13.627 13.63-13.627 13.628 6.111 13.628 13.627-6.114 13.629-13.628 13.629zm0-25.256c-6.412 0-11.63 5.215-11.63 11.627s5.218 11.629 11.63 11.629c6.411 0 11.628-5.217 11.628-11.629 0-6.41-5.217-11.627-11.628-11.627z" fill="url(#SVGID_1_)" data-original="url(#SVGID_1_)" style=""/></g></svg>
