<?xml version="1.0"?>
<svg xmlns="http://www.w3.org/2000/svg" xmlns:xlink="http://www.w3.org/1999/xlink" xmlns:svgjs="http://svgjs.com/svgjs" version="1.1" width="512" height="512" x="0" y="0" viewBox="0 0 512 512" style="enable-background:new 0 0 512 512" xml:space="preserve" class=""><g>
<g xmlns="http://www.w3.org/2000/svg">
	<g>
		<g>
			<path d="M330.841,208.937l-1.03,9.757c-0.434,4.119,2.552,7.81,6.672,8.246c0.268,0.027,0.533,0.042,0.796,0.042     c3.789,0,7.043-2.862,7.45-6.714l1.03-9.757c0.434-4.119-2.552-7.811-6.672-8.246     C334.966,201.848,331.277,204.819,330.841,208.937z" fill="#000000" data-original="#000000" style=""/>
			<path d="M322.544,156.109c1.483,1.79,3.623,2.714,5.778,2.714c1.686,0,3.383-0.566,4.782-1.726     c3.189-2.644,3.631-7.371,0.989-10.561l-6.31-7.612c-2.644-3.19-7.373-3.631-10.561-0.988c-3.189,2.644-3.632,7.372-0.988,10.561     L322.544,156.109z" fill="#000000" data-original="#000000" style=""/>
			<path d="M356.957,190.225c1.763,0,3.533-0.618,4.959-1.876l9.707-8.564c3.106-2.74,3.402-7.48,0.662-10.586     c-2.74-3.105-7.479-3.401-10.586-0.662l-9.707,8.564c-3.106,2.74-3.402,7.48-0.662,10.586     C352.812,189.368,354.88,190.225,356.957,190.225z" fill="#000000" data-original="#000000" style=""/>
			<path d="M459.267,230.195v-0.002c3.29,10.989,13.62,19.032,25.819,19.032c14.841,0,26.914-11.902,26.914-26.532     c0-5.104-1.501-10.049-4.245-14.274c2.744-4.225,4.245-9.169,4.245-14.273c0-14.63-12.073-26.532-26.914-26.532     c-12.199,0-22.529,8.043-25.819,19.032h-50.616C394.677,137.312,348.508,101,293.857,101h-97.07     c-63.859,0-116.138,49.577-119.001,111.579l-22.015-21.583V153.23c0-4.143-3.358-7.5-7.5-7.5c-4.142,0-7.5,3.357-7.5,7.5v23.061     L15,151.027v-23.495c0-4.143-3.358-7.5-7.5-7.5s-7.5,3.357-7.5,7.5v26.646c0,2.015,0.811,3.945,2.25,5.355l17.949,17.596H7.5     c-4.142,0-7.5,3.357-7.5,7.5s3.358,7.5,7.5,7.5h27.999l13.821,13.549H26.914c-4.142,0-7.5,3.357-7.5,7.5s3.358,7.5,7.5,7.5     h37.707l13.035,12.779v33.647l-0.172-0.169c-2.795-2.742-6.785-4.01-10.667-3.391c-3.896,0.621-7.164,2.966-8.967,6.435     c-16.894,32.509-10.57,71.678,15.732,97.473H21.774C9.768,367.451,0,377.219,0,389.226S9.768,411,21.774,411h468.451     c12.007,0,21.774-9.768,21.774-21.774s-9.768-21.774-21.774-21.774h-30.621c1.261-3.679,1.919-7.568,1.919-11.532     c0-10.728-4.791-20.37-12.37-26.979c5.184-19.85,2.869-40.643-6.651-58.961c-1.803-3.469-5.07-5.813-8.966-6.435     c-3.883-0.619-7.872,0.647-10.667,3.39l-9.881,9.687v-46.427H459.267z M293.857,116c57.418,0,104.131,45.729,104.131,101.936     v73.389l-19.674,19.287c-0.82-0.169-1.66-0.257-2.506-0.257h-59.89v-92.419c0-43.697-24.549-81.867-60.817-101.936H293.857z      M199.685,322.449c2.536-25.045,24.211-44.674,50.491-44.674c21.577,0,40.488,13.309,47.671,32.58h-60.961     c-3.981,0-7.745,1.919-10.065,5.134c-2.275,3.151-2.907,7.225-1.69,10.896c5.474,16.512,16.157,30.814,30.015,41.067h-34.35     c1.267-3.692,1.937-7.587,1.937-11.532C222.733,340.762,213.175,327.769,199.685,322.449z M207.733,355.919     c0,4.171-1.227,8.113-3.544,11.532h-36.167c-2.315-3.421-3.531-7.372-3.531-11.532c0-11.605,9.699-21.048,21.621-21.048     S207.733,344.313,207.733,355.919z M240.716,325.354h67.683c0.006,0,0.013,0.001,0.019,0.001c0.006,0,0.013-0.001,0.019-0.001     h54.838l-38.639,37.879c-1.249,1.225-2.196,2.664-2.817,4.218H289.87c-0.272-0.103-0.551-0.194-0.84-0.266     C267.097,361.758,248.909,345.905,240.716,325.354z M196.787,116c57.418,0,104.131,45.729,104.131,101.936v68.376     c-4.068-4.841-8.828-9.073-14.121-12.563v-55.813c0-48.736-40.378-88.387-90.01-88.387c-23.146,0-45.139,8.609-61.926,24.242     c-3.031,2.822-3.2,7.568-0.377,10.6c2.823,3.03,7.569,3.2,10.6,0.377c14.001-13.038,32.363-20.219,51.703-20.219     c41.36,0,75.01,32.921,75.01,73.387v48.445c-6.806-2.333-14.086-3.606-21.621-3.606c-33.678,0-61.507,25.016-65.289,57.127     c-14.199,0.462-26.372,8.915-32.022,20.931l-20.803-20.394l14.4-14.117h26.058c4.142,0,7.5-3.357,7.5-7.5s-3.358-7.5-7.5-7.5     h-10.757l16.007-15.692c1.439-1.41,2.25-3.341,2.25-5.355v-19.032c0-4.143-3.358-7.5-7.5-7.5c-4.142,0-7.5,3.357-7.5,7.5v15.882     l-14.121,13.843v-10.693c0-4.143-3.358-7.5-7.5-7.5c-4.142,0-7.5,3.357-7.5,7.5v25.398l-14.121,13.843v-91.58     c0-11.702,2.729-22.883,8.112-33.232c1.911-3.675,0.481-8.203-3.193-10.115c-3.674-1.912-8.204-0.48-10.114,3.193     c-6.506,12.509-9.804,26.019-9.804,40.154v77.716l-14.121-13.843v-63.873h-0.002C92.656,161.729,139.369,116,196.787,116z      M69.564,280.176l80.038,78.463c0.233,3.007,0.851,5.969,1.826,8.812H98.189c-5.116-2.954-9.856-6.543-14.094-10.699     C63.405,336.469,57.779,306.111,69.564,280.176z M490.225,382.452c3.736-0.001,6.775,3.038,6.775,6.774     c0,3.735-3.039,6.774-6.774,6.774H21.774c-3.735,0-6.774-3.039-6.774-6.774s3.039-6.774,6.774-6.774h423.167     c0.501,0.103,1.009,0.16,1.518,0.16c0.516,0,1.031-0.055,1.537-0.16H490.225z M446.523,355.919c0,4.134-1.257,8.124-3.556,11.532     h-36.148c-2.316-3.42-3.538-7.366-3.538-11.532c0-11.605,9.699-21.048,21.621-21.048S446.523,344.313,446.523,355.919z      M430.788,280.176c5.907,13,7.519,27.321,4.708,41.239c-3.355-1-6.911-1.543-10.593-1.543c-20.193,0-36.621,16.171-36.621,36.048     c0,3.941,0.67,7.838,1.937,11.532H341.76L430.788,280.176z M412.953,215.195c-0.108-4.586-0.492-9.105-1.126-13.548h53.845     v-0.001c4.143,0,7.5-3.357,7.5-7.5c0-6.359,5.345-11.532,11.914-11.532c6.569,0,11.914,5.172,11.914,11.532     c0,3.267-1.459,6.4-4.003,8.596c-1.65,1.425-2.6,3.497-2.6,5.677c0,2.181,0.948,4.253,2.599,5.678     c2.582,2.229,4.004,5.283,4.004,8.598c0,6.359-5.345,11.532-11.914,11.532c-6.569,0-11.914-5.173-11.914-11.532     c0-4.143-3.357-7.5-7.5-7.5H412.953z" fill="#000000" data-original="#000000" style=""/>
			<path d="M196.787,239.71c17.517,0,31.768-14.037,31.768-31.291c0-17.253-14.251-31.29-31.768-31.29     c-17.517,0-31.768,14.037-31.768,31.29C165.02,225.673,179.271,239.71,196.787,239.71z M196.787,192.129     c9.246,0,16.768,7.308,16.768,16.29s-7.522,16.291-16.768,16.291c-9.246,0-16.768-7.309-16.768-16.291     S187.542,192.129,196.787,192.129z" fill="#000000" data-original="#000000" style=""/>
		</g>
	</g>
</g>
<g xmlns="http://www.w3.org/2000/svg">
</g>
<g xmlns="http://www.w3.org/2000/svg">
</g>
<g xmlns="http://www.w3.org/2000/svg">
</g>
<g xmlns="http://www.w3.org/2000/svg">
</g>
<g xmlns="http://www.w3.org/2000/svg">
</g>
<g xmlns="http://www.w3.org/2000/svg">
</g>
<g xmlns="http://www.w3.org/2000/svg">
</g>
<g xmlns="http://www.w3.org/2000/svg">
</g>
<g xmlns="http://www.w3.org/2000/svg">
</g>
<g xmlns="http://www.w3.org/2000/svg">
</g>
<g xmlns="http://www.w3.org/2000/svg">
</g>
<g xmlns="http://www.w3.org/2000/svg">
</g>
<g xmlns="http://www.w3.org/2000/svg">
</g>
<g xmlns="http://www.w3.org/2000/svg">
</g>
<g xmlns="http://www.w3.org/2000/svg">
</g>
</g></svg>
