<?xml version="1.0"?>
<svg xmlns="http://www.w3.org/2000/svg" xmlns:xlink="http://www.w3.org/1999/xlink" xmlns:svgjs="http://svgjs.com/svgjs" version="1.1" width="512" height="512" x="0" y="0" viewBox="0 0 512 512" style="enable-background:new 0 0 512 512" xml:space="preserve" class=""><g><path xmlns="http://www.w3.org/2000/svg" d="m64.948 428.5c19.128 24.437 47.485 38.057 78.676 38.057q3.725 0 7.5-.261c33.9-2.346 64.639-20.474 80.214-47.307 14.478-24.944 15.194-55.52 1.914-81.794-3.593-7.109-15.828-32.457-22.4-60.152-6.673-28.113-12.142-75.1-11.041-94.863.5-8.981-3.33-16.469-10-19.543-6.631-3.058-14.425-1.22-20.847 4.915-26.3 25.126-66.411 71.635-92.9 120.022-14.63 26.732-23.672 51.268-26.871 72.926-3.844 26.029.736 47.966 13.616 65.2q1.062 1.424 2.139 2.8zm21.646-135.165c25.829-47.183 64.982-92.574 90.662-117.108 2.043-1.951 4.2-3.015 5.981-3.015a3.675 3.675 0 0 1 1.553.322c2.1.967 3.262 4.023 3.041 7.977-1.171 21.023 4.342 68.8 11.346 98.3 6.878 28.973 19.625 55.388 23.368 62.793 11.442 22.637 10.851 48.938-1.582 70.356-13.6 23.437-40.68 39.285-70.665 41.361-30.077 2.089-57.744-10.026-75.9-33.22q-.994-1.272-1.977-2.586c-25.928-34.699-6.604-87.226 14.173-125.18z" fill="#ffffff" data-original="#000000" style="" class=""/><path xmlns="http://www.w3.org/2000/svg" d="m38.1 450.612c14.839 18.958 32.844 33.087 53.513 42a129.069 129.069 0 0 0 51.469 10.556l159.284 3.818c99.305 0 148.895-11.505 180.087-64.971 20.646-35.39 21.749-78.692 2.952-115.835a367.335 367.335 0 0 1 -39.436-151.971 48.65 48.65 0 0 0 -28.459-42.565l2.151-88.292a20.105 20.105 0 0 0 -40.181-1.471l-4.048 82.112-28.708-3.776 2.13-86.285a20.1 20.1 0 0 0 -40.18-1.471l-4.049 82.219-28.845-3.793 2.066-85.268a20.1 20.1 0 0 0 -40.18-1.474l-4.045 81.2-28.342-3.727a27.316 27.316 0 0 0 -23.758 7.4c-39.509 37.745-94.2 95.562-130.364 156.654-44.388 74.969-49.81 135.848-16.117 180.942q1.52 2.034 3.06 3.998zm353.363-408.141a8.105 8.105 0 0 1 16.2.586l-2.07 84.937c-.664-.113-1.332-.216-2.007-.3l-16.218-2.133zm-52.541 88.82 63.121 8.3a36.6 36.6 0 0 1 31.932 35.079 379.327 379.327 0 0 0 40.725 156.93c16.951 33.494 15.975 72.511-2.61 104.369-18.341 31.439-43.583 47.13-87.124 54.159a365.429 365.429 0 0 1 -38.073 3.826c23-30.3 30.838-62.759 33.23-85.718 3.1-29.709-1.206-59.614-11.508-79.995a369.083 369.083 0 0 1 -29.7-81.14c-7.318-30.829-3.989-69.077-1.314-99.81.488-5.624.956-11.018 1.321-16zm-18.266-98.241a8.105 8.105 0 0 1 16.2.585l-2.1 85.005-18.2-2.394zm-71.008-8.313a8.105 8.105 0 0 1 16.2.587l-2.035 83.985-18.257-2.4zm77.358 104.987c-.367 5.088-.853 10.684-1.361 16.521-2.6 29.925-6.172 70.909 1.593 103.622a381.137 381.137 0 0 0 30.662 83.782c16.92 33.475 19.769 107.294-27.009 160.958-36.305 1.061-80.707-.291-134.563-1.99 28.586-11.658 53.177-32.356 68.616-58.955 20.477-35.279 21.484-78.537 2.693-115.716a367.9 367.9 0 0 1 -39.046-187.24 28 28 0 0 0 -2.93-14.311zm-265.526 142.054c35.472-59.917 89.364-116.866 128.327-154.09a15.387 15.387 0 0 1 10.813-4.445 16.41 16.41 0 0 1 6.8 1.491 15.612 15.612 0 0 1 9.186 15.3 379.922 379.922 0 0 0 40.318 193.321c16.956 33.545 16.076 72.528-2.359 104.283-20.929 36.062-60.295 60.283-102.735 63.221-40.985 2.831-78.014-14.083-104.284-47.644q-1.455-1.86-2.894-3.784c-30.514-40.84-24.852-97.246 16.828-167.653z" fill="#ffffff" data-original="#000000" style="" class=""/><path xmlns="http://www.w3.org/2000/svg" d="m89.474 345.141a6 6 0 0 0 7.778-3.392c7.412-18.872 18.351-39.334 32.514-60.815a6 6 0 0 0 -10.019-6.605c-14.621 22.177-25.948 43.385-33.664 63.033a6 6 0 0 0 3.391 7.779z" fill="#ffffff" data-original="#000000" style="" class=""/><path xmlns="http://www.w3.org/2000/svg" d="m134.877 262.818a6 6 0 0 0 8.384-1.309q1.684-2.308 3.382-4.584a6 6 0 0 0 -9.619-7.175q-1.734 2.325-3.457 4.685a6 6 0 0 0 1.31 8.383z" fill="#ffffff" data-original="#000000" style="" class=""/></g></svg>
