<?xml version="1.0"?>
<svg xmlns="http://www.w3.org/2000/svg" xmlns:xlink="http://www.w3.org/1999/xlink" xmlns:svgjs="http://svgjs.com/svgjs" version="1.1" width="512" height="512" x="0" y="0" viewBox="0 0 64 64" style="enable-background:new 0 0 512 512" xml:space="preserve" class=""><g><g xmlns="http://www.w3.org/2000/svg" id="_30-soy_meat" data-name="30-soy meat"><rect x="39.268" y="50" width="2.179" height="2" transform="translate(-22.465 67.827) rotate(-66.64)" fill="#ffffff" data-original="#000000" style="" class=""/><path d="M34.8,58a10.382,10.382,0,0,1-1.417-.112,39.031,39.031,0,0,1-4.539-1,38.408,38.408,0,0,0-4.15-.929c-.5-.074-1.008-.128-1.512-.183-.678-.073-1.357-.146-2.029-.262a10.709,10.709,0,0,1-4.374-1.683,6.406,6.406,0,0,1-2.707-4.077A8.635,8.635,0,0,1,14.8,45.3c.654-1.7,1.455-3.356,2.229-4.957.285-.59.571-1.18.848-1.771l1.81.85c-.281.6-.569,1.2-.857,1.792-.757,1.564-1.54,3.183-2.163,4.8a6.776,6.776,0,0,0-.621,3.411A4.406,4.406,0,0,0,17.935,52.2,8.738,8.738,0,0,0,21.5,53.547c.63.108,1.266.177,1.9.245.532.057,1.063.114,1.591.192a40.617,40.617,0,0,1,4.365.973,36.88,36.88,0,0,0,4.305.951,5.01,5.01,0,0,0,2.286-.079,4.219,4.219,0,0,0,2.183-2.292l1.773.926a6.282,6.282,0,0,1-3.291,3.253A5.387,5.387,0,0,1,34.8,58Z" fill="#ffffff" data-original="#000000" style="" class=""/><path d="M42.571,48.4,40.735,47.6l2.482-5.742a34.9,34.9,0,0,0,2.635-7.669c.25-1.425.308-3.356-.825-4.457a6.394,6.394,0,0,0-3.076-1.276c-2.911-.662-5.881-1.272-8.826-1.811l-.852-.159c-2.213-.422-4.125-.785-6.159-.143a5.018,5.018,0,0,0-2.525,1.658,8.632,8.632,0,0,0-1.223,3.6c-.065.35-.132.7-.206,1.042A26.286,26.286,0,0,1,20.6,37.39l-1.842-.78A24.378,24.378,0,0,0,20.2,32.229c.07-.327.133-.659.2-.991a10.217,10.217,0,0,1,1.584-4.428,6.9,6.9,0,0,1,3.527-2.37c2.512-.8,4.863-.347,7.135.085l.837.158c2.974.543,5.972,1.158,8.912,1.828A8.044,8.044,0,0,1,46.42,28.3c1.394,1.353,1.879,3.51,1.4,6.236a36.417,36.417,0,0,1-2.769,8.118Z" fill="#ffffff" data-original="#000000" style="" class=""/><path d="M36.04,64a11.508,11.508,0,0,1-1.492-.112,43.791,43.791,0,0,1-4.812-.995,43.794,43.794,0,0,0-4.419-.931c-.531-.073-1.066-.127-1.6-.182-.723-.073-1.445-.146-2.159-.262a11.657,11.657,0,0,1-4.609-1.669,6.4,6.4,0,0,1-2.873-4.083A5.42,5.42,0,0,1,14,55.035L14,49h2l0,6a3.582,3.582,0,0,0,.047.426,4.407,4.407,0,0,0,2.01,2.76,9.7,9.7,0,0,0,3.821,1.36c.676.11,1.358.179,2.04.248.559.057,1.118.113,1.674.19a45.328,45.328,0,0,1,4.624.97,41.4,41.4,0,0,0,4.591.954,5.78,5.78,0,0,0,2.484-.083c1.452-.482,2.273-2.046,2.991-3.606l4.765-10.376a41.374,41.374,0,0,0,2.819-7.318,5.588,5.588,0,0,0,.134-1.3V33.337a1.133,1.133,0,0,0-.063-.384,6.125,6.125,0,0,0-4.18-3.985l.486-1.94a8.1,8.1,0,0,1,5.579,5.256A3.147,3.147,0,0,1,50,33.337v5.888a7.555,7.555,0,0,1-.188,1.761,42.7,42.7,0,0,1-2.938,7.672L42.1,59.054c-.862,1.874-1.965,3.934-4.178,4.67A5.956,5.956,0,0,1,36.04,64Z" fill="#ffffff" data-original="#000000" style="" class=""/><path d="M32.049,45a1,1,0,0,1-.982-.809,4.729,4.729,0,0,1,.866-3.618A4.926,4.926,0,0,1,35.951,39a1,1,0,0,1,.982.809,4.729,4.729,0,0,1-.866,3.618A4.926,4.926,0,0,1,32.049,45Zm2.919-3.921a2.415,2.415,0,0,0-1.484.756,2.154,2.154,0,0,0-.452,1.086,2.415,2.415,0,0,0,1.484-.756A2.154,2.154,0,0,0,34.968,41.079Z" fill="#ffffff" data-original="#000000" style="" class=""/><path d="M31.951,45a4.926,4.926,0,0,1-4.018-1.573,4.729,4.729,0,0,1-.866-3.618A1,1,0,0,1,28.049,39a4.926,4.926,0,0,1,4.018,1.573,4.729,4.729,0,0,1,.866,3.618A1,1,0,0,1,31.951,45Zm-2.919-3.921a2.154,2.154,0,0,0,.452,1.086,2.415,2.415,0,0,0,1.484.756,2.158,2.158,0,0,0-.452-1.086A2.415,2.415,0,0,0,29.032,41.079Z" fill="#ffffff" data-original="#000000" style="" class=""/><path d="M32.7,53.716l-1.4-1.432c.215-.21.42-.451.626-.691A4.467,4.467,0,0,1,34.385,49.8a3.571,3.571,0,0,1,.8-.033,1.734,1.734,0,0,0,.412-.014,1.034,1.034,0,0,0,.4-.822l2,.136a2.893,2.893,0,0,1-1.769,2.583,2.986,2.986,0,0,1-1.118.115,2.019,2.019,0,0,0-.381.005c-.376.066-.859.628-1.285,1.125C33.2,53.181,32.954,53.466,32.7,53.716Z" fill="#ffffff" data-original="#000000" style="" class=""/><path d="M25.168,51.555,24.2,50.1a2.827,2.827,0,0,0-.883-.984,3.782,3.782,0,0,0-.527-.217,5.108,5.108,0,0,1-.862-.373,4.139,4.139,0,0,1-1.717-2.375,2.758,2.758,0,0,0-.786-1.335l1.152-1.634a4.458,4.458,0,0,1,1.5,2.257c.263.689.443,1.122.845,1.353a3.625,3.625,0,0,0,.543.226,5.5,5.5,0,0,1,.814.346,4.617,4.617,0,0,1,1.583,1.628l.968,1.452Z" fill="#ffffff" data-original="#000000" style="" class=""/><path d="M42.713,39.47l-1.766-.94a1.23,1.23,0,0,0-.071-.873c-.08-.215-.18-.419-.278-.623a7.708,7.708,0,0,1-.417-.978,2.907,2.907,0,0,1,.248-2.561,2.987,2.987,0,0,1,.381-.427,1.66,1.66,0,0,0,.137-.141.471.471,0,0,0,.012-.413l1.717-1.028a2.459,2.459,0,0,1-.137,2.652,3.315,3.315,0,0,1-.339.368,1.059,1.059,0,0,0-.139.145,1.088,1.088,0,0,0,.022.786,5.864,5.864,0,0,0,.315.727c.126.262.251.524.353.8A3.132,3.132,0,0,1,42.713,39.47Z" fill="#ffffff" data-original="#000000" style="" class=""/><path d="M37.329,36.742a5.991,5.991,0,0,1-1.653-2.565c-.021-.063-.034-.111-.047-.149-.07-.007-.158-.011-.226-.014l-.124-.007a4.825,4.825,0,0,1-2.955-1.27l1.352-1.474a2.81,2.81,0,0,0,1.721.748l.1,0a2.121,2.121,0,0,1,1.641.652,2.307,2.307,0,0,1,.416.826,4.094,4.094,0,0,0,1.114,1.764Z" fill="#ffffff" data-original="#000000" style="" class=""/><path d="M25.692,31.721l-1.384-1.442a4.121,4.121,0,0,1,2.844-1.208,6.391,6.391,0,0,1,1.21.147,3.605,3.605,0,0,0,.876.11.829.829,0,0,0,.8-.6l1.926.538a2.827,2.827,0,0,1-2.678,2.059,7.425,7.425,0,0,1-1.3-.145,4.729,4.729,0,0,0-.838-.112A2.146,2.146,0,0,0,25.692,31.721Z" fill="#ffffff" data-original="#000000" style="" class=""/><path d="M29.835,38.1a2.842,2.842,0,0,1-1.629-.555,6.143,6.143,0,0,1-1.069-1.043l1.515-1.3a4.544,4.544,0,0,0,.715.719.849.849,0,0,0,.5.184l.2,1.99A2.1,2.1,0,0,1,29.835,38.1Z" fill="#ffffff" data-original="#000000" style="" class=""/><rect x="27.996" y="20" width="2" height="2" transform="translate(7.911 49.934) rotate(-89.832)" fill="#ffffff" data-original="#000000" style="" class=""/><path d="M6,46a1,1,0,0,1-.923-.613c-.568-1.359-1.153-2.595-1.72-3.791A34.6,34.6,0,0,1,.015,32.17.968.968,0,0,1,0,32V27A7.983,7.983,0,0,1,.536,24.4,8.063,8.063,0,0,0,.963,22.71c.078-.827.109-1.692.141-2.528a21.223,21.223,0,0,1,.742-5.743,5.444,5.444,0,0,1,1.7-2.723,5.688,5.688,0,0,1,2.072-.959A18.185,18.185,0,0,1,12.066,10l12.172.055a6.506,6.506,0,0,1,2.752.438A4.914,4.914,0,0,1,29.5,13.65a11.4,11.4,0,0,1,.492,3.339l.007.952-2,.065-.007-1a9.407,9.407,0,0,0-.41-2.79,2.985,2.985,0,0,0-1.428-1.907,4.85,4.85,0,0,0-1.925-.254L12.092,12a16.509,16.509,0,0,0-5.939.682,3.9,3.9,0,0,0-1.363.6,3.56,3.56,0,0,0-1.038,1.765,19.459,19.459,0,0,0-.65,5.208c-.032.865-.065,1.759-.149,2.644a9.671,9.671,0,0,1-.517,2.12A6.4,6.4,0,0,0,2,26.99v4.923A32.725,32.725,0,0,0,5.165,40.74c.485,1.027.985,2.082,1.482,3.228a25.051,25.051,0,0,0,3.82-.826c.751-.2,1.523-.409,2.309-.589l.448,1.949c-.762.175-1.512.376-2.24.571A20.313,20.313,0,0,1,6,46Z" fill="#ffffff" data-original="#000000" style="" class=""/><path d="M34,26H32V17.211a4.97,4.97,0,0,0-3.81-4.861A13.706,13.706,0,0,0,25,12H23V10h2a15.766,15.766,0,0,1,3.655.4A6.964,6.964,0,0,1,34,17.211Z" fill="#ffffff" data-original="#000000" style="" class=""/><path d="M15,49H7a1,1,0,0,1-.948-.684l-1-3,1.9-.632L7.721,47H15Z" fill="#ffffff" data-original="#000000" style="" class=""/><path d="M16.364,29.286a.992.992,0,0,1-.558-.171,5.18,5.18,0,0,1-2.136-3.473,5.426,5.426,0,0,1,1.909-4.349,1,1,0,0,1,1.266-.122,5.18,5.18,0,0,1,2.136,3.475,5.423,5.423,0,0,1-1.91,4.347A1,1,0,0,1,16.364,29.286Zm-.006-5.852a2.927,2.927,0,0,0-.7,2.015,2.649,2.649,0,0,0,.631,1.4,2.931,2.931,0,0,0,.7-2A2.631,2.631,0,0,0,16.358,23.434Z" fill="#ffffff" data-original="#000000" style="" class=""/><path d="M13.048,31c-.134,0-.268-.007-.4-.02a5.18,5.18,0,0,1-3.475-2.136,1,1,0,0,1,.122-1.266,5.428,5.428,0,0,1,4.349-1.909,5.18,5.18,0,0,1,3.473,2.136,1,1,0,0,1-.122,1.265A5.644,5.644,0,0,1,13.048,31Zm-1.614-2.643a2.631,2.631,0,0,0,1.418.633,2.955,2.955,0,0,0,2-.7,2.657,2.657,0,0,0-1.418-.633A2.916,2.916,0,0,0,11.434,28.358Z" fill="#ffffff" data-original="#000000" style="" class=""/><path d="M26.779,22.976a2.4,2.4,0,0,1-1.465-1.1c-.066-.1-.128-.205-.192-.31a2.2,2.2,0,0,0-.29-.42,2.766,2.766,0,0,0-.9-.438q-1.115-.394-2.238-.752l.608-1.906q1.154.369,2.3.772a4.171,4.171,0,0,1,1.637.9,3.941,3.941,0,0,1,.6.815c.048.079.095.158.145.236.128.194.22.25.238.253Z" fill="#ffffff" data-original="#000000" style="" class=""/><path d="M20.687,16.561a6.061,6.061,0,0,1-2.68-.893c-1.551-.817-1.869-.813-2.226-.366l-1.562-1.248c1.485-1.861,3.432-.833,4.721-.155,1.583.836,1.887.823,2.262.328l1.6,1.205A2.548,2.548,0,0,1,20.687,16.561Z" fill="#ffffff" data-original="#000000" style="" class=""/><path d="M5.447,22.517a3.209,3.209,0,0,1,.6-4.008c.131-.123.272-.238.415-.352a2.543,2.543,0,0,0,.385-.344A1.151,1.151,0,0,0,7,17.05l2-.1a3.014,3.014,0,0,1-.57,2.094,4.147,4.147,0,0,1-.714.678c-.1.079-.2.157-.289.242a1.221,1.221,0,0,0-.261,1.519Z" fill="#ffffff" data-original="#000000" style="" class=""/><path d="M6.664,31.942A4.247,4.247,0,0,1,4,28H6a2.224,2.224,0,0,0,1.336,2.058Z" fill="#ffffff" data-original="#000000" style="" class=""/><path d="M8.933,40a3.734,3.734,0,0,1-3.3-2.117,6.862,6.862,0,0,1-.335-.9l-.068-.21a9.4,9.4,0,0,0-1.066-2.225l1.674-1.094a11.417,11.417,0,0,1,1.293,2.7l.074.232a4.933,4.933,0,0,0,.232.64A1.68,1.68,0,0,0,8.971,38l.058,2Z" fill="#ffffff" data-original="#000000" style="" class=""/><path d="M15.478,37.853a3.591,3.591,0,0,1-1.265-1.628,3.764,3.764,0,0,0-.41-.717A2.541,2.541,0,0,0,12,35V33a4.316,4.316,0,0,1,3.335,1.222,5.282,5.282,0,0,1,.676,1.127,2.244,2.244,0,0,0,.511.8Z" fill="#ffffff" data-original="#000000" style="" class=""/><rect x="55.924" y="14" width="2.43" height="2" transform="translate(12.363 53.536) rotate(-55.425)" fill="#ffffff" data-original="#000000" style="" class=""/><path d="M47.279,23.994a8.553,8.553,0,0,1-4.713-1.375,14.074,14.074,0,0,1-1.888-1.6L37.253,17.74A4.145,4.145,0,0,1,36.212,16.4a3.524,3.524,0,0,1,.077-2.555,19.769,19.769,0,0,1,2.2-4.116l4.868-7.615A3.614,3.614,0,0,1,44.649.694,6.455,6.455,0,0,1,47.231.018a14.5,14.5,0,0,1,5.843,1.207A42.086,42.086,0,0,1,58.894,3.7a6.214,6.214,0,0,1,2.637,2.32,4.454,4.454,0,0,1,.169,3.62A8.742,8.742,0,0,1,60.317,11.9c-.175.233-.346.457-.495.671l-1.644-1.136c.164-.238.352-.487.547-.744a7.551,7.551,0,0,0,1.087-1.709,2.576,2.576,0,0,0-.039-2.01,4.5,4.5,0,0,0-1.837-1.517A40.433,40.433,0,0,0,52.389,3.1a12.318,12.318,0,0,0-5.026-1.09,4.377,4.377,0,0,0-1.738.426,2.063,2.063,0,0,0-.557.706L44.036,4.77l-3.865,6.037a18.257,18.257,0,0,0-1.993,3.7,1.646,1.646,0,0,0-.126,1.111,2.674,2.674,0,0,0,.583.68l3.426,3.279a12.391,12.391,0,0,0,1.619,1.386,6.646,6.646,0,0,0,5.674.7c2.132-.734,3.61-2.474,4.889-4.246l1.621,1.172c-1.4,1.94-3.193,4.048-5.859,4.965A8.4,8.4,0,0,1,47.279,23.994Z" fill="#ffffff" data-original="#000000" style="" class=""/><path d="M49.279,29.994a8.553,8.553,0,0,1-4.713-1.375,14.074,14.074,0,0,1-1.888-1.6L39.253,23.74c-.339-.323-1.005-1.081-1.005-1.081A7.836,7.836,0,0,1,36,17.172V15h2v2.172a5.868,5.868,0,0,0,1.707,4.121c.049.053.63.717.928,1l3.426,3.279a12.391,12.391,0,0,0,1.619,1.386,6.646,6.646,0,0,0,5.674.7c2.389-.822,3.955-2.874,5.611-5.272L60.479,17.3a10.432,10.432,0,0,0,1.333-2.324A7.787,7.787,0,0,0,62,13V9h0S61.78,7.508,58.553,5.9l.894-1.79C63.872,6.318,64,8.732,64,9v4a9.184,9.184,0,0,1-.3,2.635,12.068,12.068,0,0,1-1.576,2.8l-3.514,5.085c-1.435,2.079-3.4,4.924-6.606,6.027A8.4,8.4,0,0,1,49.279,29.994Z" fill="#ffffff" data-original="#000000" style="" class=""/><path d="M50.049,16a1,1,0,0,1-.982-.809,4.729,4.729,0,0,1,.866-3.618A4.926,4.926,0,0,1,53.951,10a1,1,0,0,1,.982.809,4.729,4.729,0,0,1-.866,3.618A4.926,4.926,0,0,1,50.049,16Zm2.919-3.921a2.415,2.415,0,0,0-1.484.756,2.154,2.154,0,0,0-.452,1.086,2.415,2.415,0,0,0,1.484-.756A2.154,2.154,0,0,0,52.968,12.079Z" fill="#ffffff" data-original="#000000" style="" class=""/><path d="M47.951,14a4.926,4.926,0,0,1-4.018-1.573,4.729,4.729,0,0,1-.866-3.618A1,1,0,0,1,44.049,8a4.926,4.926,0,0,1,4.018,1.573,4.729,4.729,0,0,1,.866,3.618A1,1,0,0,1,47.951,14Zm-2.919-3.921a2.154,2.154,0,0,0,.452,1.086,2.415,2.415,0,0,0,1.484.756,2.158,2.158,0,0,0-.452-1.086A2.415,2.415,0,0,0,45.032,10.079Z" fill="#ffffff" data-original="#000000" style="" class=""/><path d="M52,7.005,50,7c0-.061,0-.111,0-.152-.081-.034-.142-.064-.207-.1a3.392,3.392,0,0,0-.468-.189,4.7,4.7,0,0,1-.874-.385,3.138,3.138,0,0,1-1.414-1.931l1.942-.482a1.129,1.129,0,0,0,.5.7,2.948,2.948,0,0,0,.519.218,5.69,5.69,0,0,1,.727.3c.044.022.088.04.128.056A1.808,1.808,0,0,1,52,7.005Z" fill="#ffffff" data-original="#000000" style="" class=""/><path d="M45.016,20.175a.359.359,0,0,0-.113-.2,2.181,2.181,0,0,0-.5-.272c-.162-.073-.324-.146-.478-.23a3.711,3.711,0,0,1-1.9-3.576l1.99.2a1.73,1.73,0,0,0,.875,1.619c.107.058.222.108.336.16a3.712,3.712,0,0,1,1.026.613,2.354,2.354,0,0,1,.74,1.332Z" fill="#ffffff" data-original="#000000" style="" class=""/><path d="M50,20.031l-2-.062a3.4,3.4,0,0,1,.2-1.09,1.969,1.969,0,0,1,1.046-1.116l1.3-.656.9,1.786-1.3.656a.479.479,0,0,0-.09.05A2.135,2.135,0,0,0,50,20.031Z" fill="#ffffff" data-original="#000000" style="" class=""/><path d="M56.731,9.963a3.866,3.866,0,0,1-2.5-1.731,1.955,1.955,0,0,1-.124-1.566L56,7.334a.1.1,0,0,0,0-.048c.028.114.383.5,1.27.751Z" fill="#ffffff" data-original="#000000" style="" class=""/></g></g></svg>
