<?xml version="1.0"?>
<svg xmlns="http://www.w3.org/2000/svg" xmlns:xlink="http://www.w3.org/1999/xlink" xmlns:svgjs="http://svgjs.com/svgjs" version="1.1" width="512" height="512" x="0" y="0" viewBox="0 0 96 96" style="enable-background:new 0 0 512 512" xml:space="preserve" class=""><g><g xmlns="http://www.w3.org/2000/svg" id="Layer_18" data-name="Layer 18"><path d="m38.21 40.93v1.26a1 1 0 0 1 -2 0v-1.26a1 1 0 0 1 2 0zm-16.09-17.34a8.8 8.8 0 0 0 -8.79 8.79v10.75a1 1 0 0 0 2 0v-10.75a6.8 6.8 0 0 1 6.79-6.79 1 1 0 0 0 0-2zm-7.79 25a1 1 0 1 0 1 1 1 1 0 0 0 -1-.99zm72.78 24.2a30.49 30.49 0 0 1 -21 8.43 23.09 23.09 0 0 1 -16.64-6.47 22.16 22.16 0 0 1 -6.14-12.25c-4.8 5.24-10.85 8.21-16.88 8.21-14 0-24.95-15.33-24.95-28.52 0-12.88 8.18-23 19.9-24.7a10.1 10.1 0 0 0 1.79-1.25c1.43-1.14 2.36-1.82 3.26-1.82s1.78.68 3.18 1.81a10.27 10.27 0 0 0 1.74 1.24c10 1.36 17.69 9.34 19.58 20.09l.45-.47a25.1 25.1 0 0 1 7-4.93 1 1 0 0 1 .86 1.8 23.15 23.15 0 0 0 -6.4 4.54c-8.69 8.69-11.37 25.43-2 34.84s26.15 6.72 34.84-2a23.16 23.16 0 0 0 3.4-28.51 7.55 7.55 0 0 1 -.68-3.54c0-1.15-.09-2.46-.57-2.95s-1.92-.61-3.14-.68a8.12 8.12 0 0 1 -3.61-.73 23.14 23.14 0 0 0 -13.67-3.17 1 1 0 0 1 -.16-2 25.1 25.1 0 0 1 14.85 3.44 7.16 7.16 0 0 0 2.7.45c1.65.09 3.36.19 4.44 1.27s1.1 2.69 1.16 4.28a6.56 6.56 0 0 0 .39 2.58 25.17 25.17 0 0 1 -3.7 31.01zm-44.11-13a30.9 30.9 0 0 1 6.19-20.2c-1.19-10.74-8.44-18.83-18.11-20.14a6.6 6.6 0 0 1 -2.71-1.67 9.74 9.74 0 0 0 -2-1.37 11.74 11.74 0 0 0 -2 1.39 6.79 6.79 0 0 1 -2.75 1.67c-10.62 1.53-18.12 10.86-18.12 22.72 0 12.17 9.87 26.3 22.65 26.51l3.43-2.34a15.2 15.2 0 0 0 6.63-12.56v-4.7a1 1 0 0 1 2 0v4.7a17.22 17.22 0 0 1 -7.5 14.2l-.3.21a24 24 0 0 0 12.59-8.42zm10.65-20.45c1.94-1.93 8.52-6.85 15.68-6.46a24.16 24.16 0 0 1 11.16 3.12 8.8 8.8 0 0 0 4 .86h.89a2 2 0 0 1 1.83 1.87v.68a8.07 8.07 0 0 0 .82 4 22 22 0 0 1 -3.24 27.09 27.3 27.3 0 0 1 -18.7 7.56 19.91 19.91 0 0 1 -14.39-5.57c-4.18-4.18-6.13-10.18-5.49-16.88a26.88 26.88 0 0 1 7.44-16.27zm1.42 1.42a25.2 25.2 0 0 0 -6.87 15c-.58 6.1 1.17 11.52 4.92 15.27a18.13 18.13 0 0 0 13 5 25.25 25.25 0 0 0 17.28-7 20 20 0 0 0 2.98-24.53 10.06 10.06 0 0 1 -1.11-5v-.68h-.76a10.75 10.75 0 0 1 -5-1.14 22.13 22.13 0 0 0 -10.25-2.8h-.73c-6.16-.02-11.88 4.3-13.46 5.88zm-3.74 18.49c-.44-1.63-.95-3.47-.16-5.17a4.32 4.32 0 0 1 2.23-1.8l.45-.22-.14-.12a3.24 3.24 0 0 1 -1.46-2.24c-.17-2.26 1.59-4 3.15-5.44l1.32-1.26a8.55 8.55 0 0 1 3.88-2.62c.48-.17.93 0 2.27.47l1.13.4.18-.23c1.09-1.37 1.87-2.28 2.7-2.41a11.88 11.88 0 0 1 5.69.45 4.11 4.11 0 0 1 3 2.92 4.19 4.19 0 0 1 -1.09 4.02l-.9.9a1.76 1.76 0 0 0 0 2.48l.6.6.59.6a1.77 1.77 0 0 0 2.49 0l.89-.9a4.18 4.18 0 0 1 4.12-1.07 4.1 4.1 0 0 1 2.92 3 17.34 17.34 0 0 1 .49 5c-.05 1.05-.94 1.78-1.72 2.43-.35.29-.94.78-1 1a1.72 1.72 0 0 0 .22 1.05 4.71 4.71 0 0 1 .36 3 7.18 7.18 0 0 1 -2.39 3.45l-1 1c-1.33 1.37-2.85 2.91-4.88 3.1a3.21 3.21 0 0 1 -3-1.25c-.26-.3-.31-.35-.41-.34a5 5 0 0 0 -.41.65 4.42 4.42 0 0 1 -2.51 2.37 5 5 0 0 1 -1.5.23 7.42 7.42 0 0 1 -2.24-.43l-1-.27a4.08 4.08 0 0 1 -3-2.92 4.16 4.16 0 0 1 1.08-4.11l.18-.18a1.74 1.74 0 0 0 .54-1.19 1.78 1.78 0 0 0 -.56-1.2l-1.2-1.19a1.76 1.76 0 0 0 -2.48 0l-.18.19a4.18 4.18 0 0 1 -4.12 1 4.09 4.09 0 0 1 -2.92-3c-.06-.21-.13-.48-.21-.75zm22.15-7.12-9.48 9.53a3.73 3.73 0 0 1 -.1 5.19l-.18.18a2.2 2.2 0 0 0 -.56 2.17 2.11 2.11 0 0 0 1.54 1.51l1.06.3a4 4 0 0 0 2.6.19c.58-.17.91-.68 1.34-1.44a4 4 0 0 1 1-1.32c.62-2.34-2-3.51-2.28-3.64a1 1 0 0 1 .76-1.8 6.55 6.55 0 0 1 1.52.9 5.14 5.14 0 0 1 2.44-2.16 1 1 0 0 1 .78 1.85s-1.83.82-1.59 2.15a4.21 4.21 0 0 1 .45 2.6 3.12 3.12 0 0 1 .93.78 1.29 1.29 0 0 0 1.36.59c1.3-.12 2.49-1.33 3.65-2.51 0 0 .86-.87 1.05-1a5.53 5.53 0 0 0 1.82-2.43 2.76 2.76 0 0 0 -.26-1.84 3.45 3.45 0 0 1 -.29-2.3 4.37 4.37 0 0 1 1.65-2c.33-.27.95-.78 1-1a15.48 15.48 0 0 0 -.44-4.44 2.14 2.14 0 0 0 -1.52-1.54 2.19 2.19 0 0 0 -2.16.57l-.9.89a2.83 2.83 0 0 1 -.28.23l-1.2 1.19a2 2 0 0 0 0 2.8l.14.13a1 1 0 0 1 0 1.42 1 1 0 0 1 -.71.29 1 1 0 0 1 -.71-.29l-.14-.14a4 4 0 0 1 -.68-4.74 3.79 3.79 0 0 1 -1.61-.87zm-20.22 6.59c.08.29.16.57.22.84a2.14 2.14 0 0 0 1.52 1.54 2.19 2.19 0 0 0 2.16-.57l.18-.18a3.78 3.78 0 0 1 2.66-1.1 3.72 3.72 0 0 1 2.53 1l9.54-9.54a3.75 3.75 0 0 1 .1-5.19l.89-.89a2.19 2.19 0 0 0 .57-2.16 2.14 2.14 0 0 0 -1.54-1.47 10.07 10.07 0 0 0 -4.82-.43 12 12 0 0 0 -1.52 1.69l-.38.47a4.22 4.22 0 0 0 1.29 3.67 1 1 0 0 1 .11 1.41 1 1 0 0 1 -.76.34 1 1 0 0 1 -.65-.24 6 6 0 0 1 -2-4.77l-1.17-.42c-.34-.12-.83-.3-1.09-.38a6.55 6.55 0 0 0 -2.93 2.06l-1.37 1.36c-1.3 1.24-2.64 2.53-2.54 3.84 0 .26.38.56.73.84.52.43 1.32 1.07 1.08 2.09-.19.83-1 1.22-1.78 1.6-.46.22-1.16.56-1.29.84-.5 1.03-.11 2.39.26 3.75zm5.19-3.89 1.83.7a1.13 1.13 0 0 0 .36.06 1 1 0 0 0 .36-1.93l-1.83-.66a1 1 0 0 0 -1.29.57 1 1 0 0 0 .57 1.26zm4.64-22.38a1 1 0 1 0 -1-1 1 1 0 0 0 1 1z" fill="#ffffff" data-original="#000000" style=""/></g></g></svg>
