<svg xmlns="http://www.w3.org/2000/svg" id="icon-woman" viewBox="0 0 57.7 85.7">
	<g>
		<g id="BTN_x2F_SelectGender_x2F_Icon-woman">
			<g id="icon-woman" transform="translate(7.000000, 1.000000)">
				<path id="Shape" class="st0" d="M35.5,83.5c0.2,0.4,0,0.9-0.4,1.1c-0.4,0.2-0.9,0-1.1-0.4c-0.3-0.6-0.7-1.3-1.1-1.8
				c-0.3-0.5-0.1-1.2,0.5-1.3c0.1,0,3.5-2.2,6.2-4c3.7-2.5,6.5-4.6,7.1-5.3c0.1-0.2,0.5-0.6,0.5-0.5c0.2-0.3,0.4-0.5,0.7-1
				c0.3-0.4,0.4-0.5,0.5-0.6c0.1-0.1,0.2-0.2,0.3-0.3c0.1-0.2,0.2-0.3,0.3-0.4c0.3-0.4-0.3-2.9-1.4-6.6c-0.1-0.2-0.1-0.5-0.2-0.8
				c-0.1-0.3-0.2-0.6-0.3-0.9c-0.1-0.5-0.2-0.7-0.3-0.9c-0.2-0.7-0.4-1.2-0.5-1.7c-0.4-1.2-0.6-2-0.7-2.6c-0.1-1.3-0.3-2.5-0.6-3.7
				c-0.1-0.4-0.2-0.8-0.3-1.2c-0.2-0.7-0.5-1.4-0.8-2.2c-0.1-0.4-0.8-2.2-1-2.6c-0.3-0.9-0.5-1.5-0.6-2c0-1.6-0.2-3.4-0.4-4.4
				c-0.2-0.9-0.9-2.1-1.7-3.1C40,36,40,36,39.9,35.9c-0.1-0.1-0.2-0.3-0.5-0.5c-0.1-0.1-0.6-0.6-0.6-0.7c-0.3-0.3-0.5-0.5-0.7-0.8
				c-0.1-0.1-0.1-0.1-0.2-0.2c-0.8-0.8-1.3-1.5-1.7-1.9c-1.5-1.9-2.4-4.1-3-7c-0.4-1.9-0.5-3.6-0.1-5.1c0-0.1,0.1-0.2,0.2-0.3
				c0.5-0.6,1-1.2,1.6-2c0.1-0.1,1.2-1.6,1.5-1.9c0.1-0.2,0.3-0.4,0.5-0.8c0.2-0.2,0.2-0.3,0.3-0.4c0.1-0.1,0.1-0.2,0.2-0.3
				c0.4-0.5,0.7-1.2,1.2-2.1c0.1-1,1.7-1,1.7,0.1c0,0.7-0.1,1.4-0.2,2.1c0,0.3-0.1,0.6-0.2,1c-0.1,0.6-0.1,0.7-0.2,1
				c-0.2,0.7-0.3,1.3-0.6,2.5C39.1,19,39,19.1,39,19.3c-0.7,2.7-1,4.3-1,6c0,3.3,1.5,5.7,3.8,7.4c0.4,0.3,0.9,0.6,1.3,0.8
				c-1.3-2.5-1.3-5.5-0.4-9.6c0.1-0.6,0.2-1.1,0.5-2.1c0.7-2.9,0.9-4,1-5.4c0.2-2.7-0.3-5.8-1.2-8.4c-1-2.5-2.2-4.4-3.7-5.2
				c-0.1,0-0.1-0.1-0.2-0.1c-0.2-0.2-0.2-0.2-0.3-0.3C38,1.8,37,1.6,36.5,2.1c-0.1,0.1-0.1,0.1-0.2,0.2c-0.1,0.3-0.4,0.5-0.8,0.5
				c-0.6,0-0.8-0.1-2.1-0.8c-0.4-0.2-0.6-0.3-0.8-0.4c-0.5-0.2-1-0.3-2-0.5c-0.6-0.1-1-0.2-1.4-0.3c-1.3-0.1-2.6,0-3.8,0.3
				c-0.1,0-0.2,0-0.3,0.1c-0.1,0-0.2,0-0.3,0.1c-0.3,0.1-0.5,0.1-0.7,0.2c-0.7,0.1-1.1,0.2-1.4,0.4c-0.4,0.1-0.8,0.3-1.3,0.5
				c-0.7,0.4-1.4,0.9-2,1.5c-0.2,0.2-0.3,0.4-0.5,0.8c-0.1,0.2-0.2,0.3-0.2,0.4c-0.1,0.3-0.2,0.5-0.2,0.6c0,0.3,0,0.3,0,0.5
				c0,0.2,0,0.2,0,0.3c0.2,0.3,0.1,0.7-0.2,1c-0.1,0.1-0.1,0.2-0.1,0.2c-0.1,0.2-0.2,0.3-0.2,0.5c-0.1,0.2-0.2,0.3-0.3,0.4
				c-0.2,0.4-0.3,0.7-0.5,1c-0.1,0.3-0.3,0.5-0.6,0.5c0.2,0,0.2,0,0.2,0c-0.1,0.3-0.2,0.4-0.2,0.5c0,0.1-0.1,0.2-0.1,0.2
				c-0.1,0.1-0.1,0.2-0.1,0.3c0,0.1-0.1,0.2-0.1,0.3c0,0.1-0.1,0.2-0.1,0.3c-0.1,0.2-0.1,0.8,0.1,1.4c0,0.4,0,0.5,0,0.6
				c0,0.2-0.1,0.3-0.2,0.5c-0.4,0.6-0.8,1-1.3,1.4c-0.2,0.2-0.8,0.6-0.7,0.6c-0.1,0.1-0.2,0.2-0.2,0.2l-0.2,0.2
				c0.1,0.2,0.2,0.3,0.3,0.4c0.2,0.1,0.3,0.1,0.3,0.2c0.2,0.2,0.3,0.2,0.4,0.3l0.2,0.2c0.1,0.1,0.2,0.2,0.3,0.4
				c0.1,0.1,0.1,0.2,0.2,0.3c0.1,0.1,0.1,0.2,0.1,0.4c0,0.3,0,0.5-0.1,0.6l-0.3,0.6c0.1,0.2,0.2,0.4,0.2,0.6c0-0.2-0.1-0.4-0.2-0.5
				c0,0,0.1,0.1,0.2,0.2c0.4,0.4,0.4,1,0.1,1.3c0,0,0.1,0.1,0.3,0.3c0.5,0.6,0.5,1,0.3,1.9c-0.1,0.5-0.1,0.6,0,0.6
				c0.1,0.1,0.2,0.1,0.2,0.2c0,0,0.2,0.1,0.5,0.3c0,0,0.1,0.1,0.3,0.1c0.2,0,0.3,0,0.6,0h0.9c0.3-0.1,0.5-0.2,0.7-0.2
				c0.3,0,0.3-0.1,0.5-0.1l0.2,0c0.1-0.1,0.3-0.1,0.4-0.1c0.1-0.1,0.2-0.1,0.4-0.1c0.2,0,0.3-0.1,0.6-0.1c0.2,0,0.3-0.1,0.5-0.1
				l0.2,0H22c0.4,0,0.9,0.1,1.5,0.2c0.2,0.1,0.4,0.2,0.6,0.4c0.7,1.5,1.5,3.2,1.9,4.5c0,0.2,0.1,0.3,0,0.5c-0.2,0.7-0.5,1.1-1,1.6
				c-0.1,0.1-0.4,0.4-0.4,0.4c-0.2,0.2-0.3,0.3-0.4,0.4c-0.4,0.4-0.7,0.7-1.4,1.2c-0.6,0.5-0.9,0.7-1.2,1c-0.1,0.1-0.3,0.3-0.3,0.5
				c-0.2,0.4-0.5,0.6-0.9,0.8c-0.3,0.2-0.6,0.3-1.1,0.6c-0.6,0.3-0.8,0.4-1.2,0.6c-0.5,0.2-0.9,0.5-1.5,0.8
				c-0.2,0.1-0.4,0.2-0.7,0.4c-0.3,0.2-0.5,0.3-0.7,0.4c-0.9,0.5-1.6,0.9-2.3,1.3c-0.9,0.5-1.7,1-2.5,1.6c-1.9,1.3-3.6,3.8-4,5.7
				C6,49,6.7,50.9,7.9,51.6c0.3,0.2,0.4,0.4,0.4,0.7v0.7c0,0.3-0.1,0.5-0.3,0.7c-0.2,0.1-0.2,0.2-0.5,0.4C6.9,54.5,6.4,55,5,56.6
				c-0.5,0.5-1.4,0.3-1.5-0.4c-0.1-0.4-0.5-1.4-1.8-4c-0.2-0.5-0.3-0.7-0.5-1C0.8,50,0.3,49-0.2,47.6c-0.7-2-1.4-4.1-1.8-6.3
				c-0.3-1.8,0-2.6,0.9-3c0.2-0.2,0.7-0.9,1-1.5c0.1-0.2,0.4-0.6,0.9-1.2C1,35.3,1.2,35,1.4,34.8c0-0.3,0-0.5,0-0.7
				c0,0-0.1,0-0.3,0.1c-0.6,0.3-1.3-0.3-1.1-1C0,32.8,0,32.6,0,32.5c0-0.3-0.1-0.3-0.6-0.3c-0.1,0-1,0.1-1.2,0.2
				c-1.6,0.2-2.4,0.5-2.5,0.6c-0.1,0.1-0.2,0.5-0.4,1.1c-0.1,0.3-0.2,0.6-0.2,1c0,0.2-0.1,0.4-0.1,0.4c0,0.1,0,0.2,0,0.3
				c0,0.3-0.1,0.6-0.1,0.9c-0.1,0.6-0.1,1.3-0.1,1.8c0,0.8,0,1.5,0.1,1.9c0.1,0.1,0.2,0.3,0.2,0.5c0.5,5.3,1.5,11.6,2.7,17.3
				c0.5,2.5,1.1,4.8,1.5,6.4c0.2,0.8,0.4,1.4,0.6,1.8c0.1,0.1,0.1,0.3,0.2,0.4c0.5,0.1,1.7-0.1,2.3-0.3c0.2-0.1,1.2-0.6,2.5-1.3
				c0.5-0.3,1.7-1,1.8-1c0.3-0.1,0.4-0.3,0.6-0.3c0.1,0,0.1-0.1,0.2-0.1c0.1-0.1,0.1-0.1,0.5-0.1c0.4,0,0.8,0.3,0.8,0.7
				c0,0.1,0,0.4,0.1,0.7c0,0.1,0.1,2.5,0.1,3.6c0.1,1.9,0.2,3.8,0.4,5.7c0.2,2.9,1.1,5.7,2.6,9.2c0.2,0.4,0,0.9-0.4,1.1
				c-0.4,0.2-0.9,0-1.1-0.4c-1.6-3.6-2.5-6.6-2.8-9.7c-0.2-1.9-0.3-3.8-0.4-5.8c0-0.7-0.1-2-0.1-2.8c-0.4,0.2-1.1,0.6-1.3,0.8
				C4,67.4,3.2,67.8,2.8,68c-1.1,0.4-2.9,0.7-3.7,0.3c-1.5-0.7-4.7-15.9-5.8-26.9c-0.1-0.1-0.1-0.2-0.1-0.3C-7,40.5-7,39.6-7,38.4
				c0-0.6,0.1-1.3,0.1-1.9c0-0.3,0.1-0.6,0.1-0.9c0-0.2,0-0.3,0-0.4c0-0.1,0.1-0.3,0.1-0.5c0.1-0.4,0.2-0.7,0.2-1.1
				c0.2-0.7,0.4-1.3,0.6-1.6c0.5-0.7,1.4-1,3.7-1.3c0.2,0,1.1-0.2,1.2-0.2c1.4-0.2,2.3,0.5,2.5,1.6c0.2,0,0.5,0,0.7,0.2
				c0.4,0.3,0.6,0.8,0.8,1.4c0.1,0.5,0.2,1,0.2,1.3c0,0.2-0.1,0.4-0.2,0.5c-0.1,0.1-0.1,0.2-0.3,0.3c-0.2,0.2-0.4,0.5-0.6,0.7
				c-0.4,0.5-0.7,0.9-0.7,1c-0.4,0.9-1,1.8-1.5,2.1c-0.2,0.1-0.2,0.1-0.2,0.1C-0.5,39.9-0.5,40-0.3,41c0.4,2,1,4,1.8,6
				c0.5,1.3,0.9,2.3,1.4,3.4c0.1,0.3,0.2,0.5,0.5,1c0.7,1.4,1.1,2.3,1.4,3c0.8-0.9,1.3-1.3,1.8-1.6c-1.5-1.3-2.3-3.6-2-5.9
				c0.4-2.5,2.4-5.4,4.7-6.9c0.8-0.6,1.7-1.1,2.6-1.7c0.7-0.4,1.4-0.8,2.4-1.3c0.2-0.1,0.4-0.2,0.7-0.4c0.4-0.2,0.6-0.3,0.7-0.4
				c0.6-0.3,1-0.5,1.5-0.8c0.3-0.2,0.6-0.3,1.1-0.6c0.6-0.3,0.8-0.4,1.2-0.6c0.3-0.3,0.5-0.7,0.8-0.9c0.4-0.4,0.7-0.7,1.4-1.2
				c0.6-0.5,0.9-0.7,1.2-1c0.2-0.3,1-1.1,0.9-0.9c0.2-0.2,0.4-0.4,0.5-0.7c-0.3-1-0.9-2.4-1.5-3.6c-0.3-0.1-0.5-0.1-0.7-0.1h-0.3
				c-0.2,0-0.3,0.1-0.5,0.1c-0.2,0-0.3,0.1-0.5,0.1c-0.2,0-0.2,0-0.2,0.1c-0.1,0-0.2,0.1-0.3,0.1c-0.2,0.1-0.3,0.1-0.4,0.1
				c-0.1,0-0.3,0.1-0.5,0.1c-0.1,0-0.2,0-0.2,0c-0.1,0.1-0.2,0.1-0.3,0.1c-0.1,0-0.2,0-0.4,0h-1c-0.3,0-0.5,0-0.7,0
				c-0.2,0-0.3-0.1-0.4-0.1c-0.2-0.1-0.4-0.2-0.4-0.2c-0.5-0.2-0.8-0.4-1-0.7c-0.7-0.5-0.7-1.1-0.6-2.1c0.1-0.4,0.1-0.5,0.1-0.6
				c-0.2-0.1-0.4-0.3-0.6-0.5c-0.2-0.4-0.3-0.9-0.2-1.3c-0.2-0.5-0.3-0.8-0.3-1.2c0-0.3,0.1-0.5,0.2-0.7c0,0,0.1-0.2,0.2-0.4
				c0,0-0.1-0.1-0.2-0.2c-0.2-0.1-0.2-0.2-0.3-0.2c-0.3-0.2-0.5-0.3-0.7-0.5c-0.4-0.4-0.6-0.8-0.6-1.4c0-0.5,0.2-1,0.6-1.3
				c0.1-0.1,0.2-0.3,0.3-0.3c0.1-0.1,0.7-0.5,0.8-0.7c0.4-0.3,0.7-0.6,0.9-0.9c-0.2-0.9-0.3-1.8,0-2.4c0-0.1,0.1-0.3,0.1-0.4
				c0.1-0.1,0.1-0.2,0.2-0.2c-0.1,0.1-0.1,0.2-0.2,0.3c0.1-0.2,0.1-0.4,0.3-0.7C14.9,9.5,15,9.5,15,9.5c0.1-0.4,0.3-0.8,0.7-1.1
				c0.1-0.3,0.3-0.6,0.5-1.1c0.1-0.1,0.1-0.2,0.2-0.3c0.1-0.1,0.1-0.2,0.2-0.3c0-0.1,0.1-0.1,0.1-0.2c0-0.2,0-0.4,0-0.6
				c0,0,0-0.1,0-0.3c0-0.3,0.1-0.7,0.2-1.1C17,4.2,17,4.1,17.1,4c0.1-0.2,0.1-0.2,0.1-0.2c0.3-0.6,0.5-1,0.9-1.3
				c1.3-1.3,2.8-2.1,3.9-2.4c0.5-0.2,1-0.3,1.7-0.4c0.2,0,0.4-0.1,0.7-0.1c0.2,0,0.2-0.1,0.3-0.1c0.1,0,0.3-0.1,0.3-0.1
				C26.5-1,28-1.1,29.5-1c0.5,0.1,0.8,0.2,1.5,0.3c1.2,0.2,1.6,0.3,2.3,0.6c0.3,0.1,0.6,0.3,1.1,0.5c0.4,0.2,0.7,0.4,0.8,0.5
				c0.1-0.1,0.2-0.2,0.3-0.2c1.3-1,3.1-0.6,4.4,0.5l0.2,0.2c1.9,1.1,3.3,3.2,4.4,6c1.1,2.9,1.6,6.2,1.4,9.1c-0.1,1.5-0.3,2.7-1,5.7
				c-0.2,1-0.3,1.5-0.5,2.1c-1,5-0.7,7.9,1.7,10.4c0.6,0.6,0,1.6-0.8,1.4c-0.3-0.1-0.8-0.2-1.4-0.4c-1-0.4-2.1-0.9-3.1-1.6
				c-0.4-0.3-0.7-0.5-1-0.8c0.1,0.1,0.2,0.2,0.3,0.3c0,0,0.5,0.6,0.6,0.7c0.5,0.5,0.7,0.7,0.7,0.8c1,1.2,1.7,2.6,2,3.7
				c0.2,1.1,0.4,3.1,0.4,4.6c0.1,0.3,0.2,0.8,0.5,1.6c0.2,0.4,0.8,2.2,1,2.6c0.3,0.9,0.6,1.6,0.8,2.3c0.1,0.4,0.3,0.9,0.4,1.3
				c0.3,1.2,0.5,2.6,0.6,3.9c0.1,0.8,0,0.3,1.7,5.9c0.1,0.3,0.2,0.5,0.2,0.8c1.5,4.8,1.9,6.9,1.3,7.9c-0.1,0.2-0.2,0.3-0.3,0.4
				c-0.2,0.3-0.4,0.5-0.5,0.7c-0.1,0.1-0.2,0.2-0.4,0.4c-0.3,0.5-0.5,0.8-0.7,1.1c0,0-0.4,0.4-0.5,0.6c-1.1,1.4-10,7.6-13.1,9.4
				C35.1,82.7,35.3,83.1,35.5,83.5z M48.4,72.3C48.4,72.3,48.4,72.3,48.4,72.3C48.4,72.3,48.4,72.3,48.4,72.3z M38.3,31.7
				c0.2,0.3,0.5,0.6,0.9,1c0.1,0.1,0.1,0.1,0.2,0.2c0.1,0.2,0.3,0.3,0.5,0.5C39.2,32.8,38.7,32.3,38.3,31.7z M36.3,25.3
				c0-1.9,0.3-3.6,1.1-6.5c0-0.2,0.1-0.3,0.2-0.6c0.3-1,0.4-1.6,0.5-2.1c-0.1,0.1-0.1,0.2-0.2,0.4c-0.3,0.4-1.4,1.9-1.5,2
				c-0.6,0.8-1,1.3-1.5,1.9c-0.3,1.1-0.2,2.6,0.2,4.2c0.5,2.6,1.4,4.7,2.7,6.3c0.2,0.2,0.4,0.5,0.7,0.8C37,30,36.3,27.9,36.3,25.3z
				 M16.2,7.4c0,0,0,0.1,0,0.1C16.2,7.5,16.2,7.4,16.2,7.4L16.2,7.4z M16.7,6.8c0.1,0,0.1,0,0.2,0C16.9,6.8,16.8,6.8,16.7,6.8
				L16.7,6.8z M14.6,10.5C14.6,10.5,14.6,10.5,14.6,10.5L14.6,10.5C14.6,10.5,14.6,10.5,14.6,10.5z M14.1,22.8c0,0,0.1,0,0.2,0
				C14.3,22.8,14.2,22.8,14.1,22.8L14.1,22.8z M20.1,26.2C20.1,26.2,20.1,26.2,20.1,26.2C20.1,26.2,20.1,26.2,20.1,26.2L20.1,26.2z
				 M20.5,26.1C20.5,26.1,20.5,26.1,20.5,26.1L20.5,26.1z M8.1,65.2C8.1,65.1,8.1,65.1,8.1,65.2C8.1,65.1,8.1,65.1,8.1,65.2
				L8.1,65.2z M0,66.8C0,66.8,0,66.8,0,66.8C0,66.8,0,66.8,0,66.8L0,66.8z M18,25C18,25,18,25,18,25C18,25,18,25,18,25L18,25z
				 M15.1,21.3c0,0,0-0.1,0-0.1C15.1,21.2,15.1,21.3,15.1,21.3L15.1,21.3z M13.5,16.4C13.5,16.4,13.5,16.4,13.5,16.4
				C13.5,16.4,13.5,16.4,13.5,16.4L13.5,16.4z M13.4,16.5C13.3,16.5,13.3,16.5,13.4,16.5C13.3,16.5,13.4,16.5,13.4,16.5L13.4,16.5z
				 M14,15.6C14,15.6,14,15.6,14,15.6C14,15.6,14,15.6,14,15.6z M16.7,9.8C16.7,9.8,16.7,9.8,16.7,9.8C16.7,9.8,16.7,9.8,16.7,9.8
				L16.7,9.8z M16.7,9.7C16.7,9.7,16.7,9.7,16.7,9.7C16.7,9.7,16.7,9.7,16.7,9.7L16.7,9.7z M16.5,9.8c-0.1,0-0.1,0-0.2,0
				c0.2,0,0.2,0,0.3,0L16.5,9.8z M17.1,4.5c0-0.1,0,0,0.1,0.2C18,5.1,18,5.1,18.4,4.9c0.2-0.2,0.2-0.2,0.3-0.3c0,0,0,0,0,0
				C18.2,5.3,17.3,5.1,17.1,4.5z M17.1,4.5c0-0.1,0-0.2,0-0.3c0,0.1,0,0.1,0,0.1L17.1,4.5z" />
				<path id="Path" class="st0" d="M32.3,54.1c-0.1,0.1-0.4,0.4-0.4,0.5c-0.2,0.2-0.3,0.3-0.4,0.5c-0.6,0.7-1.2,1.4-2.4,2.9
				c-1.1,1.4-1.5,2-2.1,2.6c-0.6,0.7-0.9,1.1-1.1,1.5c-0.7,1.2-1.1,5-0.7,8.3c0.2,0.9,2.3,3.7,3.9,4.8c0.6,0.5,1.2,1,1.8,1.6
				c0.7-0.6,1.4-1.4,2.3-2.4c0.3-0.3,0.6-0.7,0.9-1.1c0.2-0.2,0.8-1,1-1.1c2.4-2.9,4-4.5,5.7-5.7c-0.3-0.9-0.8-1.7-1.5-2.8
				c-0.3-0.5-1.6-2.1-1.6-2.1c-0.7-1-1.2-1.7-1.7-2.6c-1.3-2.4-2.3-4.2-2.9-5.6c0,0,0-0.1,0-0.1C32.8,53.5,32.6,53.8,32.3,54.1z
				 M25.7,59.4c0.6-0.6,1-1.2,2-2.6c1.2-1.6,1.8-2.3,2.5-3c0.1-0.1,0.3-0.3,0.4-0.5c0.1-0.1,0.4-0.4,0.4-0.5
				c0.7-0.8,1.1-1.3,1.4-1.8c0.4-0.7,1.3-0.6,1.6,0.2c0.1,0.2,0.2,0.6,0.6,1.4c0.6,1.3,1.5,3.1,2.8,5.5c0.4,0.8,0.9,1.5,1.6,2.4
				c0,0,1.2,1.7,1.6,2.2c1,1.5,1.6,2.6,1.9,4c0.1,0.4-0.1,0.7-0.4,0.9c-1.8,1.1-3.3,2.6-5.9,5.6c-0.1,0.1-0.8,0.9-1,1.1
				c-0.4,0.4-0.7,0.8-1,1.1c-1.2,1.4-2.2,2.4-3.1,3.1c-0.4,0.3-0.9,0.2-1.2-0.1c-0.7-0.8-1.4-1.5-2-2c-1.9-1.2-4.3-4.4-4.6-5.9
				c-0.4-3.6,0-7.8,0.9-9.3C24.7,60.7,25,60.3,25.7,59.4z" />
			</g>
		</g>
	</g>
</svg>
