<?xml version="1.0"?>
<svg xmlns="http://www.w3.org/2000/svg" xmlns:xlink="http://www.w3.org/1999/xlink" xmlns:svgjs="http://svgjs.com/svgjs" version="1.1" width="512" height="512" x="0" y="0" viewBox="0 0 128 128" style="enable-background:new 0 0 512 512" xml:space="preserve"><g><path xmlns="http://www.w3.org/2000/svg" d="m27.1 128c-9 0-17.87-3.28-22.82-11.08-7.63-12.03-4.28-26.85 7.72-34.48 4.67-3 9.67-5.7 15-8.59 8.64-4.73 17.57-9.62 26-16a217.07 217.07 0 0 0 37.61-36.47c2.8-3.42 7.23-7.79 12.45-9.21a2 2 0 1 1 1.05 3.83c-3.28.89-7 3.69-10.41 7.88a221 221 0 0 1 -38.3 37.12c-8.7 6.59-17.76 11.56-26.53 16.36-5.23 2.86-10.17 5.57-14.73 8.46-10.27 6.51-13 18.7-6.48 29 6.21 9.79 21 11.18 31.79 6.87 50.74-20.34 73.4-61.15 80.79-77.75 4.46-10 4.8-21.16.81-26.5a2 2 0 1 1 3.2-2.39c4.88 6.53 4.73 19.08-.36 30.52-7.59 17-30.86 58.94-83 79.83a37.67 37.67 0 0 1 -13.79 2.6z" fill="#ffffff" data-original="#000000" style=""/><path xmlns="http://www.w3.org/2000/svg" d="m115.83 18.84a2 2 0 0 1 -1.46-.63 7.22 7.22 0 0 0 -2.47-1.78 5.45 5.45 0 0 0 -3.27.51 2 2 0 0 1 -2.32-.27 10 10 0 0 0 -1.13-.9 1.47 1.47 0 0 0 -.49 0l-.14.08a2 2 0 0 1 -2.08-3.41l.22-.13c3.93-2.32 3.67-9.72 3.67-9.79a2 2 0 0 1 1.77-2.1c11.55-1.35 11.85.86 12 2.17 1 7.61 3.15 10.94 4.17 12.55a2.14 2.14 0 0 1 -.12 2.43 2.35 2.35 0 0 1 -2.9.43 6.73 6.73 0 0 0 -1.65-.47 5 5 0 0 0 -2.66.94 2 2 0 0 1 -1.14.37zm-4.76-6.49a7.8 7.8 0 0 1 1.71.19 8.53 8.53 0 0 1 3.33 1.84 8.49 8.49 0 0 1 2.83-.82 37.84 37.84 0 0 1 -2.6-9.44 35 35 0 0 0 -6 .11 18 18 0 0 1 -2.5 8.52l.18.14a9.51 9.51 0 0 1 3.05-.54z" fill="#ffffff" data-original="#000000" style=""/></g></svg>
